<?xml version="1.0" encoding="UTF-8" standalone="no"?>
<svg xmlns:dc="http://purl.org/dc/elements/1.1/" xmlns:cc="http://creativecommons.org/ns#" xmlns:rdf="http://www.w3.org/1999/02/22-rdf-syntax-ns#" xmlns:svg="http://www.w3.org/2000/svg" xmlns="http://www.w3.org/2000/svg" xmlns:xlink="http://www.w3.org/1999/xlink" xmlns:sodipodi="http://sodipodi.sourceforge.net/DTD/sodipodi-0.dtd" xmlns:inkscape="http://www.inkscape.org/namespaces/inkscape" version="1.1" id="svg10" xml:space="preserve" width="596.66931" height="848" viewBox="0 0 596.66931 848" sodipodi:docname="Goncharov poster.svg" inkscape:version="1.0.1 (3bc2e813f5, 2020-09-07)" inkscape:export-filename="C:\Users\diego\Downloads\Goncharov poster.png" inkscape:export-xdpi="96" inkscape:export-ydpi="96"><metadata id="metadata16"><rdf:RDF><cc:Work rdf:about=""><dc:format>image/svg+xml</dc:format><dc:type rdf:resource="http://purl.org/dc/dcmitype/StillImage"/><dc:title/></cc:Work></rdf:RDF></metadata><defs id="defs14"><linearGradient inkscape:collect="always" id="linearGradient1942"><stop style="stop-color:#3f0000;stop-opacity:1;" offset="0" id="stop1938"/><stop style="stop-color:#ab0000;stop-opacity:1" offset="1" id="stop1940"/></linearGradient><clipPath clipPathUnits="userSpaceOnUse" id="clipPath48"><path d="M 0,485.035 H 648.988 V 0 H 0 Z" id="path46"/></clipPath><linearGradient inkscape:collect="always" xlink:href="#linearGradient1942" id="linearGradient1946" x1="-179.1283" y1="193.56332" x2="-177.55235" y2="107.26875" gradientUnits="userSpaceOnUse"/><linearGradient inkscape:collect="always" xlink:href="#linearGradient1942" id="linearGradient2560" gradientUnits="userSpaceOnUse" gradientTransform="matrix(1.9096755,0,0,-1.8180108,422.43996,1000.2852)" x1="-183.14644" y1="285.57559" x2="-177.55235" y2="107.26875"/></defs><sodipodi:namedview pagecolor="#ffffff" bordercolor="#666666" borderopacity="1" objecttolerance="10" gridtolerance="10" guidetolerance="10" inkscape:pageopacity="0" inkscape:pageshadow="2" inkscape:window-width="1366" inkscape:window-height="705" id="namedview12" showgrid="false" inkscape:document-rotation="0" inkscape:zoom="0.60731132" inkscape:cx="127.63913" inkscape:cy="501.1285" inkscape:window-x="-8" inkscape:window-y="-8" inkscape:window-maximized="1" inkscape:current-layer="g18"/><g id="g18" inkscape:groupmode="layer" inkscape:label="FreeVector-Gangster-Silhouettes" transform="matrix(1.3333333,0,0,-1.3333333,403.66129,832.40932)"><g id="g42"><g id="g44" clip-path="url(#clipPath48)"><g id="g50" transform="translate(120.2134,-14.7412)"><path d="m 0,0 c -0.02,0.858 -0.779,1.464 -1.62,1.464 -1.852,0 -2.145,-1.579 -2.145,-2.984 0,-1.305 0.567,-2.652 1.973,-2.652 1.147,0 1.733,0.662 1.89,1.734 h 3.218 c -0.293,-2.708 -2.4,-4.271 -5.091,-4.271 -3.041,0 -5.304,2.089 -5.304,5.189 0,3.219 2.048,5.521 5.304,5.521 2.516,0 4.758,-1.328 4.994,-4.001 z" style="fill:#000000;fill-opacity:1;fill-rule:nonzero;stroke:none" id="path52"/></g><g id="g54" transform="translate(128.8208,-10.8154)"><path d="m 0,0 c -3.126,0 -5.303,-2.313 -5.303,-5.345 0,-3.029 2.177,-5.324 5.303,-5.324 3.127,0 5.326,2.295 5.326,5.324 C 5.326,-2.313 3.127,0 0,0" style="fill:#000000;fill-opacity:1;fill-rule:nonzero;stroke:none" id="path56"/></g><g id="g58" transform="translate(111.4771,-18.3193)"><path d="m 0,0 c -0.86,0 -1.458,-0.636 -1.458,-1.468 0,-0.833 0.598,-1.462 1.458,-1.462 0.859,0 1.461,0.629 1.461,1.462 C 1.461,-0.636 0.859,0 0,0" style="fill:#000000;fill-opacity:1;fill-rule:nonzero;stroke:none" id="path60"/></g><g id="g62" transform="translate(134.3779,-11.4629)"><path d="m 0,0 h 3.139 v -1.352 h 0.037 c 0.591,0.991 1.635,1.637 2.835,1.637 1.235,0 2.338,-0.398 2.87,-1.598 0.781,1.046 1.749,1.598 3.081,1.598 3.139,0 3.48,-2.377 3.48,-4.262 v -5.892 h -3.234 v 5.8 c 0,1.064 -0.512,1.69 -1.349,1.69 -1.388,0 -1.521,-1.062 -1.521,-2.661 V -9.869 H 6.105 v 5.609 c 0,1.159 -0.343,1.881 -1.216,1.881 -1.162,0 -1.654,-0.665 -1.654,-2.681 V -9.869 H 0 Z" style="fill:#000000;fill-opacity:1;fill-rule:nonzero;stroke:none" id="path64"/></g><g id="g66" transform="translate(68.6528,-21.2285)"><path d="m 0,0 h -3.686 l -3.256,9.762 h 3.33 l 1.786,-6.454 h 0.038 l 1.807,6.454 h 3.257 z" style="fill:#000000;fill-opacity:1;fill-rule:nonzero;stroke:none" id="path68"/></g><g id="g70" transform="translate(73.6675,-17.1309)"><path d="m 0,0 c 0.056,-1.335 0.831,-2.219 2.184,-2.219 0.767,0 1.52,0.361 1.818,1.073 H 6.995 C 6.414,-3.403 4.324,-4.383 2.142,-4.383 c -3.177,0 -5.341,1.922 -5.341,5.193 0,2.99 2.392,5.133 5.267,5.133 3.498,0 5.25,-2.631 5.1,-5.943 z" style="fill:#000000;fill-opacity:1;fill-rule:nonzero;stroke:none" id="path72"/></g><g id="g74" transform="translate(87.6758,-15.041)"><path d="m 0,0 c -0.02,0.827 -0.752,1.412 -1.562,1.412 -1.788,0 -2.068,-1.528 -2.068,-2.881 0,-1.261 0.547,-2.558 1.903,-2.558 1.107,0 1.668,0.64 1.823,1.676 h 3.1 c -0.279,-2.614 -2.314,-4.122 -4.907,-4.122 -2.934,0 -5.113,2.014 -5.113,5.004 0,3.105 1.973,5.323 5.113,5.323 2.424,0 4.589,-1.279 4.815,-3.854 z" style="fill:#000000;fill-opacity:1;fill-rule:nonzero;stroke:none" id="path76"/></g><g id="g78" transform="translate(96.9478,-13.5371)"><path d="m 0,0 h -1.971 v -4.439 c 0,-0.772 0.451,-0.941 1.145,-0.941 0.262,0 0.548,0.039 0.826,0.039 v -2.35 c -0.58,-0.018 -1.161,-0.096 -1.749,-0.096 -2.726,0 -3.422,0.79 -3.422,3.445 V 0 h -1.617 v 2.07 h 1.617 v 2.952 h 3.2 V 2.07 H 0 Z" style="fill:#000000;fill-opacity:1;fill-rule:nonzero;stroke:none" id="path80"/></g><g id="g82" transform="translate(101.3389,-11.1875)"><path d="m 0,0 c -3.027,0 -5.135,-2.239 -5.135,-5.17 0,-2.935 2.108,-5.156 5.135,-5.156 3.027,0 5.153,2.221 5.153,5.156 C 5.153,-2.239 3.027,0 0,0" style="fill:#000000;fill-opacity:1;fill-rule:nonzero;stroke:none" id="path84"/></g><g id="g86" transform="translate(106.2773,-11.4668)"><path d="m 0,0 h 3.107 v -1.711 h 0.035 c 0.47,1.236 1.558,1.899 2.933,1.899 0.243,0 0.507,-0.024 0.751,-0.074 V -2.801 C 6.414,-2.693 6.038,-2.62 5.603,-2.62 4.024,-2.62 3.197,-3.708 3.197,-4.927 V -9.762 H 0 Z" style="fill:#000000;fill-opacity:1;fill-rule:nonzero;stroke:none" id="path88"/></g><g id="g90" transform="translate(36.5967,-11.4668)"><path d="m 0,0 h 3.106 v -1.711 h 0.037 c 0.468,1.236 1.561,1.899 2.935,1.899 0.244,0 0.509,-0.024 0.749,-0.074 V -2.801 C 6.415,-2.693 6.042,-2.62 5.604,-2.62 4.029,-2.62 3.198,-3.708 3.198,-4.927 V -9.762 H 0 Z" style="fill:#000000;fill-opacity:1;fill-rule:nonzero;stroke:none" id="path92"/></g><g id="g94" transform="translate(45.4766,-17.1309)"><path d="m 0,0 c 0.055,-1.335 0.825,-2.219 2.181,-2.219 0.769,0 1.524,0.361 1.823,1.073 H 6.997 C 6.411,-3.403 4.326,-4.383 2.145,-4.383 c -3.181,0 -5.345,1.922 -5.345,5.193 0,2.99 2.39,5.133 5.27,5.133 3.498,0 5.245,-2.631 5.096,-5.943 z" style="fill:#000000;fill-opacity:1;fill-rule:nonzero;stroke:none" id="path96"/></g><g id="g98" transform="translate(55.5596,-17.1309)"><path d="m 0,0 c 0.055,-1.335 0.826,-2.219 2.182,-2.219 0.769,0 1.522,0.361 1.823,1.073 h 2.991 c -0.582,-2.257 -2.67,-3.237 -4.851,-3.237 -3.179,0 -5.341,1.922 -5.341,5.193 0,2.99 2.384,5.133 5.266,5.133 3.497,0 5.247,-2.631 5.097,-5.943 z" style="fill:#000000;fill-opacity:1;fill-rule:nonzero;stroke:none" id="path100"/></g><g id="g102" transform="translate(36.0156,-10.0605)"><path d="m 0,0 c 0.283,0 0.564,-0.018 0.864,-0.055 v 2.259 c -0.509,0.02 -1.035,0.055 -1.543,0.055 -2.725,0 -3.704,-0.865 -3.704,-3.665 h -1.541 v -2.071 h 1.541 v -7.691 h 3.195 v 7.691 h 1.919 v 2.071 h -1.919 v 0.431 C -1.188,-0.092 -0.735,0 0,0" style="fill:#000000;fill-opacity:1;fill-rule:nonzero;stroke:none" id="path104"/></g><g id="g106" transform="translate(26.939,-14.5703)"><path d="m 0,0 c 0,-3.982 -3.228,-7.212 -7.211,-7.212 -3.983,0 -7.212,3.23 -7.212,7.212 0,3.981 3.229,7.21 7.212,7.21 C -3.228,7.21 0,3.981 0,0" style="fill:#ffffff;fill-opacity:1;fill-rule:nonzero;stroke:none" id="path108"/></g><g id="g110" transform="translate(22.23,-17.8486)"><path d="m 0,0 0.019,-0.013 c 0,0 -0.007,0.005 -0.013,0.01 -0.001,0 -0.004,0 -0.006,0.003 m -3.204,1.693 c -0.35,-0.123 -0.816,0.196 -1.023,0.356 -0.177,0.203 -1.242,1.338 -1.365,1.48 -0.266,0.307 -0.063,0.942 0.594,1.161 0.186,0.063 0.471,0.068 0.644,-0.125 0.776,-0.928 1.586,-1.918 1.646,-2.109 0.1,-0.333 -0.084,-0.62 -0.496,-0.763 m 0.682,8.825 c -0.659,0 -1.294,-0.086 -1.9,-0.246 0.249,-0.021 0.412,-0.178 0.497,-0.492 0,0 1.356,-4.485 1.518,-4.989 0.159,-0.506 0.35,-1.059 0.35,-1.059 C -2.164,3.643 -2.262,3.529 -2.336,3.38 -2.476,3.089 -2.552,2.853 -2.585,2.617 c -0.21,0.36 -1.033,1.368 -1.589,2.04 0,0 -0.036,0.446 -0.155,0.873 -0.12,0.425 -0.886,3.309 -0.886,3.309 C -5.351,9.375 -5.294,9.841 -5,10.094 -7.829,9.093 -9.854,6.425 -9.854,3.286 c 0,-2.85 1.674,-5.315 4.108,-6.493 -0.25,0.366 -0.538,0.937 -0.673,1.743 -0.224,1.325 -0.268,2.183 -0.436,2.922 -0.223,0.988 -0.156,1.217 0.184,1.652 0.168,0.215 0.359,0.348 0.537,0.407 0.178,0.047 0.362,-0.059 0.43,-0.135 C -5.276,2.924 -4.458,2.044 -4.358,1.919 -4.16,1.687 -4.133,1.395 -4.28,1.047 -4.338,0.906 -4.498,0.843 -4.623,0.813 -4.906,0.747 -5.227,0.806 -5.337,0.9 c -0.23,0.193 -1.35,1.217 -1.35,1.166 0,-0.269 0.833,-0.928 1.229,-1.305 0.161,-0.157 0.558,-0.201 0.879,-0.126 0.238,0.056 0.4,0.174 0.471,0.343 0.11,0.259 0.135,0.501 0.076,0.717 0.26,-0.15 0.595,-0.278 0.891,-0.176 0.288,0.1 0.462,0.255 0.556,0.422 0.019,-0.192 0.05,-0.407 0.091,-0.663 0.099,-0.646 0.22,-1.007 0.293,-1.222 0.027,-0.08 0.054,-0.163 0.051,-0.189 -0.002,-0.005 -0.005,-0.009 -0.011,-0.014 -0.17,-0.239 -0.422,-0.628 -0.582,-1.111 -0.106,-0.321 -0.186,-0.758 -0.196,-1.169 -0.005,-0.144 0,-0.367 0.042,-0.367 0.044,10e-4 0.038,0.228 0.054,0.367 0.045,0.416 0.112,0.835 0.233,1.137 0.159,0.392 0.37,0.712 0.6,1.035 0.01,0.012 0.015,0.021 0.02,0.026 0.053,0.079 0.024,0.166 -0.034,0.341 -0.072,0.211 -0.188,0.562 -0.288,1.195 -0.143,0.933 -0.198,1.284 0.145,1.993 0.276,0.576 1.01,0.583 1.168,0.517 0.061,-0.033 0.065,-0.384 0.072,-0.697 0.008,-0.349 0.015,-0.782 0.073,-1.309 0.072,-0.665 0.344,-1.184 0.589,-1.486 0.199,-0.24 0.358,-0.347 0.397,-0.31 0.037,0.036 -0.136,0.167 -0.313,0.443 -0.196,0.304 -0.421,0.763 -0.488,1.373 -0.058,0.517 -0.065,0.948 -0.071,1.294 -0.012,0.526 -0.016,0.789 -0.187,0.86 -0.085,0.037 -0.264,0.057 -0.47,0.03 l 1.353,4.533 c 0.236,0.817 0.485,1.151 1.007,1.098 0.005,0 0.01,-0.004 0.017,-0.005 -1.041,0.558 -2.233,0.877 -3.502,0.877" style="fill:#000000;fill-opacity:1;fill-rule:nonzero;stroke:none" id="path112"/></g><g id="g114" transform="translate(23.603,-8.4375)"><path d="m 0,0 c 0.174,-0.181 0.245,-0.433 0.171,-0.7 l -1.215,-5.404 c -0.074,-0.419 -0.197,-1.288 -0.086,-1.881 0.149,-0.809 0.468,-1.9 0.235,-3.106 -0.125,-0.64 -0.318,-1.336 -0.641,-1.878 2.889,0.969 4.97,3.667 4.97,6.844 C 3.434,-3.544 2.063,-1.279 0,0" style="fill:#000000;fill-opacity:1;fill-rule:nonzero;stroke:none" id="path116"/></g><path d="m 164.256,-11.693 h 2.498 v -9.587 h -2.498 z" style="fill:#000000;fill-opacity:1;fill-rule:nonzero;stroke:none" id="path118"/><g id="g120" transform="translate(168.3911,-14.3115)"><path d="m 0,0 h 2.215 v -0.953 h 0.027 c 0.416,0.699 1.155,1.155 2.001,1.155 0.873,0 1.652,-0.282 2.028,-1.128 0.55,0.738 1.235,1.128 2.175,1.128 2.216,0 2.457,-1.679 2.457,-3.008 V -6.969 H 8.621 v 4.096 c 0,0.752 -0.363,1.194 -0.954,1.194 -0.98,0 -1.074,-0.751 -1.074,-1.879 V -6.969 H 4.31 v 3.961 c 0,0.82 -0.242,1.329 -0.859,1.329 -0.819,0 -1.169,-0.469 -1.169,-1.892 V -6.969 H 0 Z" style="fill:#000000;fill-opacity:1;fill-rule:nonzero;stroke:none" id="path122"/></g><g id="g124" transform="translate(183.6812,-20.0713)"><path d="M 0,0 C 1.088,0 1.451,0.617 1.396,2.055 1.075,1.853 0.483,1.813 -0.013,1.678 -0.524,1.557 -0.954,1.343 -0.954,0.792 -0.954,0.228 -0.51,0 0,0 m -2.954,3.611 c 0.04,0.913 0.47,1.505 1.087,1.868 0.618,0.348 1.424,0.483 2.216,0.483 1.652,0 3.25,-0.362 3.25,-2.337 V 0.577 c 0,-0.591 0,-1.236 0.269,-1.786 H 1.571 c -0.08,0.214 -0.107,0.43 -0.134,0.658 -0.591,-0.618 -1.463,-0.859 -2.296,-0.859 -1.329,0 -2.377,0.671 -2.377,2.107 0,2.271 2.47,2.095 4.055,2.417 0.389,0.081 0.605,0.216 0.605,0.646 0,0.523 -0.632,0.724 -1.102,0.724 -0.631,0 -1.033,-0.281 -1.141,-0.873 z" style="fill:#000000;fill-opacity:1;fill-rule:nonzero;stroke:none" id="path126"/></g><g id="g128" transform="translate(191.9907,-15.8555)"><path d="m 0,0 c -1.007,0 -1.33,-0.886 -1.33,-1.745 0,-0.819 0.376,-1.639 1.316,-1.639 0.967,0 1.384,0.751 1.384,1.625 C 1.37,-0.872 1.02,0 0,0 m 3.532,-4.579 c 0,-1.142 -0.215,-3.29 -3.478,-3.29 -1.625,0 -3.156,0.362 -3.425,2.229 h 2.283 c 0.054,-0.308 0.174,-0.497 0.389,-0.604 0.202,-0.108 0.484,-0.148 0.833,-0.148 1.088,0 1.196,0.766 1.196,1.625 v 0.658 H 1.303 c -0.417,-0.644 -1.115,-1.02 -1.854,-1.02 -2.108,0 -3.061,1.503 -3.061,3.464 0,1.853 1.088,3.411 3.061,3.411 0.833,0 1.464,-0.362 1.867,-1.075 h 0.027 v 0.873 h 2.189 z" style="fill:#000000;fill-opacity:1;fill-rule:nonzero;stroke:none" id="path130"/></g><g id="g132" transform="translate(201.7637,-17.0771)"><path d="M 0,0 C -0.041,0.779 -0.591,1.423 -1.357,1.423 -2.162,1.423 -2.7,0.846 -2.833,0 Z m -2.833,-1.275 c 0.04,-0.954 0.59,-1.585 1.557,-1.585 0.55,0 1.088,0.255 1.303,0.765 h 2.135 c -0.416,-1.612 -1.907,-2.309 -3.465,-2.309 -2.269,0 -3.813,1.369 -3.813,3.706 0,2.135 1.705,3.666 3.759,3.666 2.498,0 3.747,-1.881 3.639,-4.243 z" style="fill:#000000;fill-opacity:1;fill-rule:nonzero;stroke:none" id="path134"/></g><g id="g136" transform="translate(206.9575,-18.9844)"><path d="m 0,0 c 0,-0.349 0.147,-0.604 0.376,-0.778 0.215,-0.162 0.523,-0.243 0.846,-0.243 0.443,0 1.074,0.188 1.074,0.74 0,0.537 -0.712,0.643 -1.115,0.737 -1.436,0.363 -3.236,0.403 -3.236,2.284 0,1.679 1.813,2.135 3.182,2.135 1.531,0 3.13,-0.443 3.21,-2.257 H 2.229 c 0,0.296 -0.107,0.485 -0.295,0.605 -0.188,0.121 -0.444,0.174 -0.726,0.174 -0.375,0 -0.98,-0.04 -0.98,-0.523 0,-0.658 1.531,-0.779 2.578,-1.007 1.41,-0.282 1.773,-1.303 1.773,-1.881 0,-1.866 -1.773,-2.483 -3.344,-2.483 -1.652,0 -3.343,0.551 -3.41,2.497 z" style="fill:#000000;fill-opacity:1;fill-rule:nonzero;stroke:none" id="path138"/></g><g id="g140" transform="translate(219.7363,-20.0713)"><path d="M 0,0 C 1.088,0 1.451,0.617 1.396,2.055 1.075,1.853 0.483,1.813 -0.013,1.678 -0.524,1.557 -0.954,1.343 -0.954,0.792 -0.954,0.228 -0.51,0 0,0 m -2.954,3.611 c 0.04,0.913 0.47,1.505 1.087,1.868 0.618,0.348 1.424,0.483 2.216,0.483 1.652,0 3.25,-0.362 3.25,-2.337 V 0.577 c 0,-0.591 0,-1.236 0.269,-1.786 H 1.571 c -0.08,0.214 -0.107,0.43 -0.134,0.658 -0.591,-0.618 -1.463,-0.859 -2.296,-0.859 -1.329,0 -2.377,0.671 -2.377,2.107 0,2.271 2.47,2.095 4.055,2.417 0.389,0.081 0.605,0.216 0.605,0.646 0,0.523 -0.632,0.724 -1.102,0.724 -0.631,0 -1.033,-0.281 -1.141,-0.873 z" style="fill:#000000;fill-opacity:1;fill-rule:nonzero;stroke:none" id="path142"/></g><g id="g144" transform="translate(224.917,-14.3115)"><path d="m 0,0 h 2.215 v -1.222 h 0.027 c 0.336,0.886 1.115,1.357 2.095,1.357 0.175,0 0.363,-0.014 0.538,-0.054 V -2 c -0.296,0.08 -0.564,0.134 -0.873,0.134 -1.128,0 -1.719,-0.78 -1.719,-1.652 V -6.969 H 0 Z" style="fill:#000000;fill-opacity:1;fill-rule:nonzero;stroke:none" id="path146"/></g><g id="g148" transform="translate(235.0933,-17.0771)"><path d="M 0,0 C -0.041,0.779 -0.591,1.423 -1.357,1.423 -2.162,1.423 -2.7,0.846 -2.833,0 Z m -2.833,-1.275 c 0.04,-0.954 0.59,-1.585 1.557,-1.585 0.55,0 1.088,0.255 1.303,0.765 h 2.135 c -0.416,-1.612 -1.907,-2.309 -3.465,-2.309 -2.269,0 -3.814,1.369 -3.814,3.706 0,2.135 1.706,3.666 3.76,3.666 2.498,0 3.747,-1.881 3.639,-4.243 z" style="fill:#000000;fill-opacity:1;fill-rule:nonzero;stroke:none" id="path150"/></g><g id="g152" transform="translate(244.9448,-17.7227)"><path d="m 0,0 c 0,-1.222 0.349,-2.013 1.383,-2.013 1.02,0 1.37,1.06 1.37,2.013 0,0.887 -0.35,1.867 -1.357,1.867 C 0.778,1.867 0,1.438 0,0 m -2.202,3.411 h 2.175 V 2.605 H 0 c 0.443,0.659 1.114,1.008 1.92,1.008 2.189,0 3.115,-1.881 3.115,-3.841 0,-1.812 -0.966,-3.531 -2.94,-3.531 -0.86,0 -1.517,0.321 -1.988,0.953 H 0.081 v -3.088 h -2.283 z" style="fill:#000000;fill-opacity:1;fill-rule:nonzero;stroke:none" id="path154"/></g><g id="g156" transform="translate(251.2798,-14.3115)"><path d="m 0,0 h 2.215 v -1.222 h 0.027 c 0.336,0.886 1.115,1.357 2.095,1.357 0.175,0 0.363,-0.014 0.538,-0.054 V -2 c -0.296,0.08 -0.564,0.134 -0.873,0.134 -1.128,0 -1.719,-0.78 -1.719,-1.652 V -6.969 H 0 Z" style="fill:#000000;fill-opacity:1;fill-rule:nonzero;stroke:none" id="path158"/></g><g id="g160" transform="translate(260.0054,-19.7354)"><path d="M 0,0 C 1.061,0 1.397,1.047 1.397,1.933 1.397,2.819 1.061,3.88 0,3.88 -1.061,3.88 -1.383,2.819 -1.383,1.933 -1.383,1.047 -1.061,0 0,0 m 0,5.626 c 2.162,0 3.68,-1.599 3.68,-3.693 0,-2.095 -1.518,-3.679 -3.68,-3.679 -2.162,0 -3.666,1.584 -3.666,3.679 0,2.094 1.504,3.693 3.666,3.693" style="fill:#000000;fill-opacity:1;fill-rule:nonzero;stroke:none" id="path162"/></g><g id="g164" transform="translate(267.0796,-17.7227)"><path d="m 0,0 c 0,-1.222 0.349,-2.013 1.383,-2.013 1.02,0 1.37,1.06 1.37,2.013 0,0.887 -0.35,1.867 -1.357,1.867 C 0.778,1.867 0,1.438 0,0 m -2.202,3.411 h 2.175 V 2.605 H 0 c 0.443,0.659 1.114,1.008 1.92,1.008 2.189,0 3.115,-1.881 3.115,-3.841 0,-1.812 -0.966,-3.531 -2.94,-3.531 -0.86,0 -1.518,0.321 -1.988,0.953 H 0.08 v -3.088 h -2.282 z" style="fill:#000000;fill-opacity:1;fill-rule:nonzero;stroke:none" id="path166"/></g><g id="g168" transform="translate(278.1143,-17.0771)"><path d="M 0,0 C -0.041,0.779 -0.591,1.423 -1.356,1.423 -2.162,1.423 -2.7,0.846 -2.833,0 Z m -2.833,-1.275 c 0.04,-0.954 0.59,-1.585 1.557,-1.585 0.55,0 1.088,0.255 1.302,0.765 h 2.136 c -0.416,-1.612 -1.907,-2.309 -3.465,-2.309 -2.269,0 -3.814,1.369 -3.814,3.706 0,2.135 1.706,3.666 3.761,3.666 2.497,0 3.746,-1.881 3.638,-4.243 z" style="fill:#000000;fill-opacity:1;fill-rule:nonzero;stroke:none" id="path170"/></g><g id="g172" transform="translate(281.6157,-14.3115)"><path d="m 0,0 h 2.216 v -1.222 h 0.026 c 0.336,0.886 1.115,1.357 2.095,1.357 0.175,0 0.363,-0.014 0.538,-0.054 V -2 c -0.296,0.08 -0.564,0.134 -0.873,0.134 -1.128,0 -1.719,-0.78 -1.719,-1.652 V -6.969 H 0 Z" style="fill:#000000;fill-opacity:1;fill-rule:nonzero;stroke:none" id="path174"/></g><g id="g176" transform="translate(291.457,-15.7881)"><path d="m 0,0 h -1.41 v -3.17 c 0,-0.55 0.322,-0.671 0.819,-0.671 0.188,0 0.389,0.028 0.591,0.028 v -1.679 c -0.417,-0.014 -0.833,-0.068 -1.249,-0.068 -1.947,0 -2.444,0.564 -2.444,2.458 V 0 h -1.155 v 1.477 h 1.155 V 3.585 H -1.41 V 1.477 H 0 Z" style="fill:#000000;fill-opacity:1;fill-rule:nonzero;stroke:none" id="path178"/></g><g id="g180" transform="translate(296.2754,-21.8975)"><path d="m 0,0 c -0.55,-1.531 -1.369,-1.719 -2.914,-1.719 h -1.074 v 1.853 h 0.792 c 0.524,0 0.914,0.296 0.914,0.779 0,0.376 -0.444,1.449 -0.578,1.825 l -1.799,4.848 h 2.417 l 1.316,-4.538 h 0.027 l 1.316,4.538 h 2.336 z" style="fill:#000000;fill-opacity:1;fill-rule:nonzero;stroke:none" id="path182"/></g><g id="g184" transform="translate(307.2422,-19.7354)"><path d="M 0,0 C 1.061,0 1.397,1.047 1.397,1.933 1.397,2.819 1.061,3.88 0,3.88 -1.061,3.88 -1.383,2.819 -1.383,1.933 -1.383,1.047 -1.061,0 0,0 m 0,5.626 c 2.162,0 3.679,-1.599 3.679,-3.693 0,-2.095 -1.517,-3.679 -3.679,-3.679 -2.162,0 -3.666,1.584 -3.666,3.679 0,2.094 1.504,3.693 3.666,3.693" style="fill:#000000;fill-opacity:1;fill-rule:nonzero;stroke:none" id="path186"/></g><g id="g188" transform="translate(312.6108,-15.7881)"><path d="M 0,0 H -1.101 V 1.477 H 0 c 0,2.001 0.698,2.618 2.645,2.618 0.363,0 0.739,-0.027 1.101,-0.04 V 2.443 C 3.531,2.471 3.33,2.484 3.128,2.484 2.605,2.484 2.283,2.417 2.283,1.786 V 1.477 H 3.652 V 0 H 2.283 V -5.492 H 0 Z" style="fill:#000000;fill-opacity:1;fill-rule:nonzero;stroke:none" id="path190"/></g><g id="g192" transform="translate(325.5117,-15.7881)"><path d="m 0,0 h -1.41 v -3.17 c 0,-0.55 0.323,-0.671 0.819,-0.671 0.188,0 0.39,0.028 0.591,0.028 v -1.679 c -0.416,-0.014 -0.833,-0.068 -1.249,-0.068 -1.947,0 -2.443,0.564 -2.443,2.458 V 0 h -1.155 v 1.477 h 1.155 V 3.585 H -1.41 V 1.477 H 0 Z" style="fill:#000000;fill-opacity:1;fill-rule:nonzero;stroke:none" id="path194"/></g><g id="g196" transform="translate(326.5313,-11.6934)"><path d="m 0,0 h 2.282 v -3.571 h 0.027 c 0.349,0.712 1.289,1.155 2.122,1.155 2.323,0 2.51,-1.692 2.51,-2.7 V -9.587 H 4.658 v 3.37 c 0,0.953 0.109,1.92 -1.14,1.92 -0.86,0 -1.236,-0.724 -1.236,-1.49 v -3.8 H 0 Z" style="fill:#000000;fill-opacity:1;fill-rule:nonzero;stroke:none" id="path198"/></g><g id="g200" transform="translate(339.7686,-17.0771)"><path d="M 0,0 C -0.04,0.779 -0.592,1.423 -1.357,1.423 -2.163,1.423 -2.7,0.846 -2.834,0 Z m -2.834,-1.275 c 0.04,-0.954 0.591,-1.585 1.558,-1.585 0.55,0 1.088,0.255 1.302,0.765 h 2.135 c -0.416,-1.612 -1.906,-2.309 -3.465,-2.309 -2.269,0 -3.812,1.369 -3.812,3.706 0,2.135 1.705,3.666 3.759,3.666 2.498,0 3.747,-1.881 3.638,-4.243 z" style="fill:#000000;fill-opacity:1;fill-rule:nonzero;stroke:none" id="path202"/></g><g id="g204" transform="translate(349.3652,-17.7227)"><path d="m 0,0 c 0,-0.953 0.349,-2.013 1.396,-2.013 1.114,0 1.356,1.06 1.356,1.947 0,1.006 -0.363,1.933 -1.356,1.933 C 0.349,1.867 0,0.887 0,0 M 4.953,-3.558 H 2.779 v 0.806 H 2.752 C 2.309,-3.41 1.637,-3.759 0.831,-3.759 c -2.188,0 -3.114,1.88 -3.114,3.84 0,1.814 0.967,3.532 2.939,3.532 0.86,0 1.519,-0.322 1.989,-0.954 h 0.027 v 3.37 h 2.281 z" style="fill:#000000;fill-opacity:1;fill-rule:nonzero;stroke:none" id="path206"/></g><g id="g208" transform="translate(360.6543,-17.0771)"><path d="M 0,0 C -0.04,0.779 -0.592,1.423 -1.357,1.423 -2.162,1.423 -2.699,0.846 -2.832,0 Z m -2.832,-1.275 c 0.039,-0.954 0.589,-1.585 1.557,-1.585 0.55,0 1.087,0.255 1.302,0.765 h 2.135 c -0.416,-1.612 -1.907,-2.309 -3.465,-2.309 -2.268,0 -3.812,1.369 -3.812,3.706 0,2.135 1.705,3.666 3.758,3.666 2.498,0 3.748,-1.881 3.64,-4.243 z" style="fill:#000000;fill-opacity:1;fill-rule:nonzero;stroke:none" id="path210"/></g><g id="g212" transform="translate(365.8486,-18.9844)"><path d="m 0,0 c 0,-0.349 0.147,-0.604 0.376,-0.778 0.215,-0.162 0.523,-0.243 0.846,-0.243 0.443,0 1.074,0.188 1.074,0.74 0,0.537 -0.713,0.643 -1.114,0.737 -1.438,0.363 -3.238,0.403 -3.238,2.284 0,1.679 1.814,2.135 3.184,2.135 1.53,0 3.129,-0.443 3.209,-2.257 H 2.229 c 0,0.296 -0.107,0.485 -0.294,0.605 -0.19,0.121 -0.446,0.174 -0.727,0.174 -0.375,0 -0.979,-0.04 -0.979,-0.523 0,-0.658 1.53,-0.779 2.578,-1.007 1.409,-0.282 1.772,-1.303 1.772,-1.881 0,-1.866 -1.772,-2.483 -3.344,-2.483 -1.652,0 -3.343,0.551 -3.41,2.497 z" style="fill:#000000;fill-opacity:1;fill-rule:nonzero;stroke:none" id="path214"/></g><path d="m 371.62,-14.312 h 2.284 v -6.969 h -2.284 z m 2.284,0.874 h -2.284 v 1.745 h 2.284 z" style="fill:#000000;fill-opacity:1;fill-rule:nonzero;stroke:none" id="path216"/><g id="g218" transform="translate(378.7217,-15.8555)"><path d="m 0,0 c -1.007,0 -1.329,-0.886 -1.329,-1.745 0,-0.819 0.375,-1.639 1.315,-1.639 0.968,0 1.384,0.751 1.384,1.625 C 1.37,-0.872 1.021,0 0,0 m 3.532,-4.579 c 0,-1.142 -0.215,-3.29 -3.478,-3.29 -1.625,0 -3.155,0.362 -3.424,2.229 h 2.283 c 0.053,-0.308 0.174,-0.497 0.389,-0.604 0.202,-0.108 0.484,-0.148 0.833,-0.148 1.088,0 1.195,0.766 1.195,1.625 v 0.658 H 1.304 c -0.417,-0.644 -1.116,-1.02 -1.854,-1.02 -2.109,0 -3.062,1.503 -3.062,3.464 0,1.853 1.088,3.411 3.062,3.411 0.833,0 1.463,-0.362 1.867,-1.075 h 0.026 v 0.873 h 2.189 z" style="fill:#000000;fill-opacity:1;fill-rule:nonzero;stroke:none" id="path220"/></g><g id="g222" transform="translate(383.7148,-14.3115)"><path d="m 0,0 h 2.215 v -0.953 h 0.027 c 0.417,0.712 1.357,1.155 2.19,1.155 2.322,0 2.511,-1.692 2.511,-2.7 V -6.969 H 4.659 v 3.37 c 0,0.953 0.108,1.92 -1.14,1.92 -0.86,0 -1.238,-0.724 -1.238,-1.49 v -3.8 H 0 Z" style="fill:#000000;fill-opacity:1;fill-rule:nonzero;stroke:none" id="path224"/></g><g id="g226" transform="translate(396.9521,-17.0771)"><path d="M 0,0 C -0.04,0.779 -0.591,1.423 -1.356,1.423 -2.162,1.423 -2.7,0.846 -2.834,0 Z m -2.834,-1.275 c 0.04,-0.954 0.591,-1.585 1.558,-1.585 0.55,0 1.088,0.255 1.302,0.765 h 2.135 c -0.416,-1.612 -1.906,-2.309 -3.464,-2.309 -2.27,0 -3.813,1.369 -3.813,3.706 0,2.135 1.705,3.666 3.76,3.666 2.498,0 3.746,-1.881 3.638,-4.243 z" style="fill:#000000;fill-opacity:1;fill-rule:nonzero;stroke:none" id="path228"/></g><g id="g230" transform="translate(400.4531,-14.3115)"><path d="m 0,0 h 2.217 v -1.222 h 0.026 c 0.335,0.886 1.114,1.357 2.095,1.357 0.174,0 0.363,-0.014 0.537,-0.054 V -2 c -0.296,0.08 -0.564,0.134 -0.872,0.134 -1.13,0 -1.719,-0.78 -1.719,-1.652 V -6.969 H 0 Z" style="fill:#000000;fill-opacity:1;fill-rule:nonzero;stroke:none" id="path232"/></g><path d="m 404.963,-18.782 h 2.498 v -2.498 h -2.498 z" style="fill:#000000;fill-opacity:1;fill-rule:nonzero;stroke:none" id="path234"/><g id="g236" transform="translate(422.7256,-15.1172)"><path d="m 0,0 c -0.136,0.968 -0.886,1.478 -1.935,1.478 -1.609,0 -2.228,-1.424 -2.228,-2.847 0,-1.424 0.619,-2.847 2.228,-2.847 1.169,0 1.841,0.671 1.935,1.773 h 2.498 c -0.136,-2.471 -1.948,-3.921 -4.38,-3.921 -2.899,0 -4.779,2.216 -4.779,4.995 0,2.78 1.88,4.995 4.779,4.995 2.07,0 4.311,-1.315 4.38,-3.626 z" style="fill:#000000;fill-opacity:1;fill-rule:nonzero;stroke:none" id="path238"/></g><g id="g240" transform="translate(426.4551,-11.6934)"><path d="M 0,0 H 2.283 V -3.571 H 2.31 c 0.348,0.712 1.288,1.155 2.12,1.155 2.324,0 2.511,-1.692 2.511,-2.7 V -9.587 H 4.66 v 3.37 c 0,0.953 0.108,1.92 -1.142,1.92 -0.86,0 -1.235,-0.724 -1.235,-1.49 v -3.8 H 0 Z" style="fill:#000000;fill-opacity:1;fill-rule:nonzero;stroke:none" id="path242"/></g><g id="g244" transform="translate(439.6914,-17.0771)"><path d="M 0,0 C -0.039,0.779 -0.591,1.423 -1.356,1.423 -2.162,1.423 -2.698,0.846 -2.834,0 Z m -2.834,-1.275 c 0.04,-0.954 0.592,-1.585 1.559,-1.585 0.55,0 1.086,0.255 1.302,0.765 h 2.135 c -0.416,-1.612 -1.906,-2.309 -3.465,-2.309 -2.267,0 -3.812,1.369 -3.812,3.706 0,2.135 1.705,3.666 3.759,3.666 2.498,0 3.745,-1.881 3.638,-4.243 z" style="fill:#000000;fill-opacity:1;fill-rule:nonzero;stroke:none" id="path246"/></g><g id="g248" transform="translate(447.6504,-16.8623)"><path d="m 0,0 c -0.014,0.591 -0.535,1.007 -1.113,1.007 -1.276,0 -1.479,-1.088 -1.479,-2.055 0,-0.899 0.391,-1.825 1.358,-1.825 0.793,0 1.194,0.456 1.301,1.194 h 2.216 c -0.2,-1.866 -1.651,-2.94 -3.504,-2.94 -2.093,0 -3.652,1.436 -3.652,3.571 0,2.216 1.408,3.801 3.652,3.801 C 0.512,2.753 2.057,1.84 2.217,0 Z" style="fill:#000000;fill-opacity:1;fill-rule:nonzero;stroke:none" id="path250"/></g><g id="g252" transform="translate(451.0732,-11.6934)"><path d="m 0,0 h 2.283 v -4.94 l 2.081,2.322 H 7.009 L 4.458,-5.25 7.333,-9.587 H 4.578 L 2.872,-6.78 2.283,-7.358 V -9.587 H 0 Z" style="fill:#000000;fill-opacity:1;fill-rule:nonzero;stroke:none" id="path254"/></g><path d="m 463.342,-11.693 h 2.281 v -9.587 h -2.281 z" style="fill:#000000;fill-opacity:1;fill-rule:nonzero;stroke:none" id="path256"/><path d="m 467.316,-14.312 h 2.281 v -6.969 h -2.281 z m 2.282,0.874 h -2.281 v 1.745 h 2.281 z" style="fill:#000000;fill-opacity:1;fill-rule:nonzero;stroke:none" id="path258"/><g id="g260" transform="translate(475.7471,-16.8623)"><path d="m 0,0 c -0.013,0.591 -0.538,1.007 -1.114,1.007 -1.277,0 -1.477,-1.088 -1.477,-2.055 0,-0.899 0.388,-1.825 1.355,-1.825 0.792,0 1.196,0.456 1.303,1.194 h 2.217 c -0.203,-1.866 -1.652,-2.94 -3.508,-2.94 -2.093,0 -3.651,1.436 -3.651,3.571 0,2.216 1.411,3.801 3.651,3.801 C 0.511,2.753 2.054,1.84 2.215,0 Z" style="fill:#000000;fill-opacity:1;fill-rule:nonzero;stroke:none" id="path262"/></g><g id="g264" transform="translate(483.9492,-17.0771)"><path d="M 0,0 C -0.041,0.779 -0.592,1.423 -1.357,1.423 -2.163,1.423 -2.699,0.846 -2.835,0 Z m -2.835,-1.275 c 0.04,-0.954 0.591,-1.585 1.558,-1.585 0.551,0 1.088,0.255 1.303,0.765 H 2.16 c -0.414,-1.612 -1.906,-2.309 -3.464,-2.309 -2.268,0 -3.813,1.369 -3.813,3.706 0,2.135 1.706,3.666 3.76,3.666 2.498,0 3.746,-1.881 3.638,-4.243 z" style="fill:#000000;fill-opacity:1;fill-rule:nonzero;stroke:none" id="path266"/></g><g id="g268" transform="translate(487.3691,-14.3115)"><path d="m 0,0 h 2.217 v -0.953 h 0.027 c 0.414,0.712 1.356,1.155 2.188,1.155 2.324,0 2.511,-1.692 2.511,-2.7 V -6.969 H 4.66 v 3.37 c 0,0.953 0.108,1.92 -1.142,1.92 -0.86,0 -1.235,-0.724 -1.235,-1.49 v -3.8 H 0 Z" style="fill:#000000;fill-opacity:1;fill-rule:nonzero;stroke:none" id="path270"/></g><g id="g272" transform="translate(497.5977,-18.9844)"><path d="M 0,0 C 0,-0.349 0.148,-0.604 0.377,-0.778 0.592,-0.94 0.9,-1.021 1.223,-1.021 c 0.443,0 1.074,0.188 1.074,0.74 0,0.537 -0.711,0.643 -1.113,0.737 -1.438,0.363 -3.237,0.403 -3.237,2.284 0,1.679 1.813,2.135 3.182,2.135 1.529,0 3.129,-0.443 3.209,-2.257 H 2.23 C 2.23,2.914 2.123,3.103 1.934,3.223 1.746,3.344 1.492,3.397 1.211,3.397 0.834,3.397 0.229,3.357 0.229,2.874 0.229,2.216 1.76,2.095 2.807,1.867 4.217,1.585 4.58,0.564 4.58,-0.014 c 0,-1.866 -1.773,-2.483 -3.344,-2.483 -1.65,0 -3.343,0.551 -3.41,2.497 z" style="fill:#000000;fill-opacity:1;fill-rule:nonzero;stroke:none" id="path274"/></g><g id="g276" transform="translate(508.0703,-17.0771)"><path d="M 0,0 C -0.041,0.779 -0.59,1.423 -1.355,1.423 -2.162,1.423 -2.699,0.846 -2.834,0 Z m -2.834,-1.275 c 0.041,-0.954 0.592,-1.585 1.559,-1.585 0.548,0 1.087,0.255 1.302,0.765 h 2.135 c -0.416,-1.612 -1.908,-2.309 -3.465,-2.309 -2.269,0 -3.814,1.369 -3.814,3.706 0,2.135 1.705,3.666 3.762,3.666 2.498,0 3.746,-1.881 3.638,-4.243 z" style="fill:#000000;fill-opacity:1;fill-rule:nonzero;stroke:none" id="path278"/></g><g id="g280" transform="translate(516.2168,-15.7881)"><path d="M 0,0 H -1.102 V 1.477 H 0 c 0,2.001 0.697,2.618 2.645,2.618 0.363,0 0.738,-0.027 1.103,-0.04 V 2.443 C 3.531,2.471 3.33,2.484 3.129,2.484 2.604,2.484 2.283,2.417 2.283,1.786 V 1.477 H 3.652 V 0 H 2.283 V -5.492 H 0 Z" style="fill:#000000;fill-opacity:1;fill-rule:nonzero;stroke:none" id="path282"/></g><g id="g284" transform="translate(524.0176,-19.7354)"><path d="M 0,0 C 1.061,0 1.396,1.047 1.396,1.933 1.396,2.819 1.061,3.88 0,3.88 -1.063,3.88 -1.383,2.819 -1.383,1.933 -1.383,1.047 -1.063,0 0,0 m 0,5.626 c 2.162,0 3.68,-1.599 3.68,-3.693 0,-2.095 -1.518,-3.679 -3.68,-3.679 -2.162,0 -3.666,1.584 -3.666,3.679 0,2.094 1.504,3.693 3.666,3.693" style="fill:#000000;fill-opacity:1;fill-rule:nonzero;stroke:none" id="path286"/></g><g id="g288" transform="translate(528.9688,-14.3115)"><path d="m 0,0 h 2.215 v -1.222 h 0.027 c 0.338,0.886 1.115,1.357 2.096,1.357 0.174,0 0.361,-0.014 0.537,-0.054 V -2 c -0.295,0.08 -0.564,0.134 -0.873,0.134 -1.129,0 -1.719,-0.78 -1.719,-1.652 V -6.969 H 0 Z" style="fill:#000000;fill-opacity:1;fill-rule:nonzero;stroke:none" id="path290"/></g><g id="g292" transform="translate(541.0371,-17.7227)"><path d="m 0,0 c 0,-1.222 0.35,-2.013 1.383,-2.013 1.019,0 1.371,1.06 1.371,2.013 0,0.887 -0.352,1.867 -1.358,1.867 C 0.779,1.867 0,1.438 0,0 m -2.203,3.411 h 2.178 V 2.605 H 0 c 0.443,0.659 1.115,1.008 1.92,1.008 2.187,0 3.117,-1.881 3.117,-3.841 0,-1.812 -0.969,-3.531 -2.943,-3.531 -0.86,0 -1.518,0.321 -1.987,0.953 H 0.082 v -3.088 h -2.285 z" style="fill:#000000;fill-opacity:1;fill-rule:nonzero;stroke:none" id="path294"/></g><g id="g296" transform="translate(552.0723,-17.0771)"><path d="M 0,0 C -0.041,0.779 -0.59,1.423 -1.355,1.423 -2.16,1.423 -2.699,0.846 -2.832,0 Z m -2.832,-1.275 c 0.039,-0.954 0.59,-1.585 1.557,-1.585 0.55,0 1.087,0.255 1.302,0.765 h 2.135 c -0.416,-1.612 -1.908,-2.309 -3.463,-2.309 -2.271,0 -3.814,1.369 -3.814,3.706 0,2.135 1.705,3.666 3.76,3.666 2.498,0 3.746,-1.881 3.638,-4.243 z" style="fill:#000000;fill-opacity:1;fill-rule:nonzero;stroke:none" id="path298"/></g><g id="g300" transform="translate(555.5742,-14.3115)"><path d="m 0,0 h 2.215 v -1.222 h 0.027 c 0.338,0.886 1.115,1.357 2.096,1.357 0.174,0 0.361,-0.014 0.537,-0.054 V -2 c -0.295,0.08 -0.564,0.134 -0.873,0.134 -1.129,0 -1.719,-0.78 -1.719,-1.652 V -6.969 H 0 Z" style="fill:#000000;fill-opacity:1;fill-rule:nonzero;stroke:none" id="path302"/></g><g id="g304" transform="translate(561.2129,-14.3115)"><path d="m 0,0 h 2.215 v -0.953 h 0.027 c 0.416,0.699 1.154,1.155 2,1.155 0.873,0 1.653,-0.282 2.028,-1.128 0.55,0.738 1.236,1.128 2.175,1.128 2.217,0 2.459,-1.679 2.459,-3.008 V -6.969 H 8.619 v 4.096 c 0,0.752 -0.361,1.194 -0.953,1.194 -0.978,0 -1.072,-0.751 -1.072,-1.879 V -6.969 H 4.311 v 3.961 c 0,0.82 -0.243,1.329 -0.862,1.329 -0.818,0 -1.166,-0.469 -1.166,-1.892 V -6.969 H 0 Z" style="fill:#000000;fill-opacity:1;fill-rule:nonzero;stroke:none" id="path306"/></g><path d="m 573.723,-14.312 h 2.283 v -6.969 h -2.283 z m 2.283,0.874 h -2.283 v 1.745 h 2.283 z" style="fill:#000000;fill-opacity:1;fill-rule:nonzero;stroke:none" id="path308"/><g id="g310" transform="translate(581.8184,-15.7881)"><path d="m 0,0 h -1.41 v -3.17 c 0,-0.55 0.324,-0.671 0.818,-0.671 0.19,0 0.391,0.028 0.592,0.028 v -1.679 c -0.414,-0.014 -0.832,-0.068 -1.248,-0.068 -1.947,0 -2.443,0.564 -2.443,2.458 V 0 h -1.157 v 1.477 h 1.157 V 3.585 H -1.41 V 1.477 H 0 Z" style="fill:#000000;fill-opacity:1;fill-rule:nonzero;stroke:none" id="path312"/></g><g id="g314" transform="translate(587.041,-15.7881)"><path d="m 0,0 h -1.412 v -3.17 c 0,-0.55 0.324,-0.671 0.82,-0.671 0.19,0 0.391,0.028 0.592,0.028 v -1.679 c -0.416,-0.014 -0.834,-0.068 -1.248,-0.068 -1.949,0 -2.445,0.564 -2.445,2.458 V 0 H -4.85 v 1.477 h 1.157 v 2.108 h 2.281 V 1.477 H 0 Z" style="fill:#000000;fill-opacity:1;fill-rule:nonzero;stroke:none" id="path316"/></g><g id="g318" transform="translate(592.8398,-17.0771)"><path d="M 0,0 C -0.041,0.779 -0.592,1.423 -1.357,1.423 -2.162,1.423 -2.699,0.846 -2.834,0 Z m -2.834,-1.275 c 0.039,-0.954 0.592,-1.585 1.557,-1.585 0.552,0 1.088,0.255 1.304,0.765 H 2.16 c -0.414,-1.612 -1.906,-2.309 -3.463,-2.309 -2.269,0 -3.812,1.369 -3.812,3.706 0,2.135 1.705,3.666 3.758,3.666 2.498,0 3.746,-1.881 3.638,-4.243 z" style="fill:#000000;fill-opacity:1;fill-rule:nonzero;stroke:none" id="path320"/></g><g id="g322" transform="translate(598.207,-17.7227)"><path d="m 0,0 c 0,-0.953 0.35,-2.013 1.396,-2.013 1.116,0 1.358,1.06 1.358,1.947 0,1.006 -0.363,1.933 -1.358,1.933 C 0.35,1.867 0,0.887 0,0 M 4.955,-3.558 H 2.781 v 0.806 H 2.754 C 2.311,-3.41 1.639,-3.759 0.832,-3.759 c -2.187,0 -3.113,1.88 -3.113,3.84 0,1.814 0.967,3.532 2.939,3.532 0.86,0 1.518,-0.322 1.987,-0.954 h 0.029 v 3.37 h 2.281 z" style="fill:#000000;fill-opacity:1;fill-rule:nonzero;stroke:none" id="path324"/></g><g id="g326" transform="translate(615.875,-21.2803)"><path d="m 0,0 h -2.215 v 0.953 h -0.027 c -0.43,-0.711 -1.315,-1.154 -2.121,-1.154 -2.002,0 -2.578,1.154 -2.578,2.98 v 4.19 H -4.66 V 2.928 c 0,-0.927 0.404,-1.249 1.129,-1.249 0.496,0 1.248,0.322 1.248,1.557 V 6.969 H 0 Z" style="fill:#000000;fill-opacity:1;fill-rule:nonzero;stroke:none" id="path328"/></g><g id="g330" transform="translate(619.1758,-18.9844)"><path d="m 0,0 c 0,-0.349 0.146,-0.604 0.375,-0.778 0.215,-0.162 0.523,-0.243 0.846,-0.243 0.443,0 1.074,0.188 1.074,0.74 0,0.537 -0.711,0.643 -1.113,0.737 -1.438,0.363 -3.239,0.403 -3.239,2.284 0,1.679 1.813,2.135 3.184,2.135 1.531,0 3.129,-0.443 3.211,-2.257 H 2.229 c 0,0.296 -0.108,0.485 -0.295,0.605 -0.188,0.121 -0.446,0.174 -0.727,0.174 -0.375,0 -0.978,-0.04 -0.978,-0.523 0,-0.658 1.531,-0.779 2.578,-1.007 1.41,-0.282 1.771,-1.303 1.771,-1.881 0,-1.866 -1.771,-2.483 -3.344,-2.483 -1.652,0 -3.343,0.551 -3.41,2.497 z" style="fill:#000000;fill-opacity:1;fill-rule:nonzero;stroke:none" id="path332"/></g><g id="g334" transform="translate(629.6465,-17.0771)"><path d="M 0,0 C -0.039,0.779 -0.59,1.423 -1.355,1.423 -2.162,1.423 -2.697,0.846 -2.834,0 Z m -2.834,-1.275 c 0.041,-0.954 0.592,-1.585 1.559,-1.585 0.55,0 1.086,0.255 1.302,0.765 h 2.135 c -0.416,-1.612 -1.906,-2.309 -3.465,-2.309 -2.267,0 -3.812,1.369 -3.812,3.706 0,2.135 1.705,3.666 3.76,3.666 2.498,0 3.746,-1.881 3.638,-4.243 z" style="fill:#000000;fill-opacity:1;fill-rule:nonzero;stroke:none" id="path336"/></g><path d="m 633.176,-18.782 h 2.498 v -2.498 h -2.498 z" style="fill:#000000;fill-opacity:1;fill-rule:nonzero;stroke:none" id="path338"/></g></g><g id="g368" transform="matrix(0.9739439,0,0,0.9739439,-35.055902,42.260415)"/><g id="g2750" inkscape:export-xdpi="96" inkscape:export-ydpi="96"><rect style="fill:#ab0000;fill-opacity:1;stroke:none;stroke-width:0.75;stroke-opacity:1" id="rect1786" width="447.50198" height="636" x="-302.74597" y="-624.30701" transform="scale(1,-1)"/><g id="g1841" transform="matrix(1.0729339,0,0,1.0729339,7.5508433,45.582627)"><g id="g2188" transform="matrix(1.4705741,0,0,1.4705741,65.485562,-216.36525)"><g id="g1681" transform="matrix(0.17159576,0,0,0.17159576,-93.652987,308.25777)"><polyline points="898.438,468.750 897.849,446.262 896.084,423.835 893.147,401.532 889.048,379.413 883.796,357.539 877.407,335.969 869.898,314.764 861.289,293.980 851.604,273.676 840.870,253.906 829.116,234.725 816.374,216.186 802.680,198.339 788.070,181.233 772.585,164.915 756.267,149.430 739.161,134.820 721.314,121.126 702.775,108.384 683.594,96.630 663.824,85.896 643.520,76.211 622.736,67.602 601.531,60.093 579.961,53.704 558.087,48.452 535.968,44.353 513.665,41.416 491.238,39.651 468.750,39.062 446.262,39.651 423.835,41.416 401.532,44.353 379.413,48.452 357.539,53.704 335.969,60.093 314.764,67.602 293.980,76.211 273.676,85.896 253.906,96.630 234.725,108.384 216.186,121.126 198.339,134.820 181.233,149.430 164.915,164.915 149.430,181.233 134.820,198.339 121.126,216.186 108.384,234.725 96.630,253.906 85.896,273.676 76.211,293.980 67.602,314.764 60.093,335.969 53.704,357.539 48.452,379.413 44.353,401.532 41.416,423.835 39.651,446.262 39.062,468.750 39.651,491.238 41.416,513.665 44.353,535.968 48.452,558.087 53.704,579.961 60.093,601.531 67.602,622.736 76.211,643.520 85.896,663.824 96.630,683.594 108.384,702.775 121.126,721.314 134.820,739.161 149.430,756.267 164.915,772.585 181.233,788.070 198.339,802.680 216.186,816.374 234.725,829.116 253.906,840.870 273.676,851.604 293.980,861.289 314.764,869.898 335.969,877.407 357.539,883.796 379.413,889.048 401.532,893.147 423.835,896.084 446.262,897.849 468.750,898.438 491.238,897.849 513.665,896.084 535.968,893.147 558.087,889.048 579.961,883.796 601.531,877.407 622.736,869.898 643.520,861.289 663.824,851.604 683.594,840.870 702.775,829.116 721.314,816.374 739.161,802.680 756.267,788.070 772.585,772.585 788.070,756.267 802.680,739.161 816.374,721.314 829.116,702.775 840.870,683.594 851.604,663.824 861.289,643.520 869.898,622.736 877.407,601.531 883.796,579.961 889.048,558.087 893.147,535.968 896.084,513.665 897.849,491.238 898.437,468.320 " id="polyline22" style="fill:#ffffff;stroke:none;stroke-width:10pt;stroke-dasharray:none;stroke-opacity:1" transform="matrix(0.75000002,0,0,-0.75000002,-378.33724,994.96762)"/><polyline points="509.173,84.150 511.419,62.783 " id="polyline27" style="fill:#ffffff;stroke:#ab0000;stroke-width:8pt;stroke-dasharray:none;stroke-opacity:1" transform="matrix(0.75000002,0,0,-0.75000002,-378.33724,994.96762)"/><polyline points="549.153,90.482 553.620,69.467 " id="polyline32" style="fill:#ffffff;stroke:#ab0000;stroke-width:8pt;stroke-dasharray:none;stroke-opacity:1" transform="matrix(0.75000002,0,0,-0.75000002,-378.33724,994.96762)"/><polyline points="588.253,100.959 594.892,80.526 " id="polyline37" style="fill:#ffffff;stroke:#ab0000;stroke-width:8pt;stroke-dasharray:none;stroke-opacity:1" transform="matrix(0.75000002,0,0,-0.75000002,-378.33724,994.96762)"/><polyline points="626.043,115.465 634.781,95.838 " id="polyline42" style="fill:#ffffff;stroke:#ab0000;stroke-width:8pt;stroke-dasharray:none;stroke-opacity:1" transform="matrix(0.75000002,0,0,-0.75000002,-378.33724,994.96762)"/><polyline points="662.109,133.842 672.852,115.236 " id="polyline47" style="fill:#ffffff;stroke:#ab0000;stroke-width:8pt;stroke-dasharray:none;stroke-opacity:1" transform="matrix(0.75000002,0,0,-0.75000002,-378.33724,994.96762)"/><polyline points="696.058,155.888 708.686,138.507 " id="polyline52" style="fill:#ffffff;stroke:#ab0000;stroke-width:8pt;stroke-dasharray:none;stroke-opacity:1" transform="matrix(0.75000002,0,0,-0.75000002,-378.33724,994.96762)"/><polyline points="727.515,181.362 741.891,165.396 " id="polyline57" style="fill:#ffffff;stroke:#ab0000;stroke-width:8pt;stroke-dasharray:none;stroke-opacity:1" transform="matrix(0.75000002,0,0,-0.75000002,-378.33724,994.96762)"/><polyline points="756.138,209.985 772.104,195.609 " id="polyline62" style="fill:#ffffff;stroke:#ab0000;stroke-width:8pt;stroke-dasharray:none;stroke-opacity:1" transform="matrix(0.75000002,0,0,-0.75000002,-378.33724,994.96762)"/><polyline points="781.612,241.442 798.993,228.814 " id="polyline67" style="fill:#ffffff;stroke:#ab0000;stroke-width:8pt;stroke-dasharray:none;stroke-opacity:1" transform="matrix(0.75000002,0,0,-0.75000002,-378.33724,994.96762)"/><polyline points="803.658,275.391 822.264,264.648 " id="polyline72" style="fill:#ffffff;stroke:#ab0000;stroke-width:8pt;stroke-dasharray:none;stroke-opacity:1" transform="matrix(0.75000002,0,0,-0.75000002,-378.33724,994.96762)"/><polyline points="822.035,311.457 841.662,302.719 " id="polyline77" style="fill:#ffffff;stroke:#ab0000;stroke-width:8pt;stroke-dasharray:none;stroke-opacity:1" transform="matrix(0.75000002,0,0,-0.75000002,-378.33724,994.96762)"/><polyline points="836.541,349.247 856.974,342.608 " id="polyline82" style="fill:#ffffff;stroke:#ab0000;stroke-width:8pt;stroke-dasharray:none;stroke-opacity:1" transform="matrix(0.75000002,0,0,-0.75000002,-378.33724,994.96762)"/><polyline points="847.018,388.347 868.033,383.880 " id="polyline87" style="fill:#ffffff;stroke:#ab0000;stroke-width:8pt;stroke-dasharray:none;stroke-opacity:1" transform="matrix(0.75000002,0,0,-0.75000002,-378.33724,994.96762)"/><polyline points="853.350,428.327 874.717,426.081 " id="polyline92" style="fill:#ffffff;stroke:#ab0000;stroke-width:8pt;stroke-dasharray:none;stroke-opacity:1" transform="matrix(0.75000002,0,0,-0.75000002,-378.33724,994.96762)"/><polyline points="855.469,468.750 876.953,468.750 " id="polyline97" style="fill:#ffffff;stroke:#ab0000;stroke-width:8pt;stroke-dasharray:none;stroke-opacity:1" transform="matrix(0.75000002,0,0,-0.75000002,-378.33724,994.96762)"/><polyline points="853.350,509.173 874.717,511.419 " id="polyline102" style="fill:#ffffff;stroke:#ab0000;stroke-width:8pt;stroke-dasharray:none;stroke-opacity:1" transform="matrix(0.75000002,0,0,-0.75000002,-378.33724,994.96762)"/><polyline points="847.018,549.153 868.033,553.620 " id="polyline107" style="fill:#ffffff;stroke:#ab0000;stroke-width:8pt;stroke-dasharray:none;stroke-opacity:1" transform="matrix(0.75000002,0,0,-0.75000002,-378.33724,994.96762)"/><polyline points="836.541,588.253 856.974,594.892 " id="polyline112" style="fill:#ffffff;stroke:#ab0000;stroke-width:8pt;stroke-dasharray:none;stroke-opacity:1" transform="matrix(0.75000002,0,0,-0.75000002,-378.33724,994.96762)"/><polyline points="822.035,626.043 841.662,634.781 " id="polyline117" style="fill:#ffffff;stroke:#ab0000;stroke-width:8pt;stroke-dasharray:none;stroke-opacity:1" transform="matrix(0.75000002,0,0,-0.75000002,-378.33724,994.96762)"/><polyline points="803.658,662.109 822.264,672.852 " id="polyline122" style="fill:#ffffff;stroke:#ab0000;stroke-width:8pt;stroke-dasharray:none;stroke-opacity:1" transform="matrix(0.75000002,0,0,-0.75000002,-378.33724,994.96762)"/><polyline points="781.612,696.058 798.993,708.686 " id="polyline127" style="fill:#ffffff;stroke:#ab0000;stroke-width:8pt;stroke-dasharray:none;stroke-opacity:1" transform="matrix(0.75000002,0,0,-0.75000002,-378.33724,994.96762)"/><polyline points="756.138,727.515 772.104,741.891 " id="polyline132" style="fill:#ffffff;stroke:#ab0000;stroke-width:8pt;stroke-dasharray:none;stroke-opacity:1" transform="matrix(0.75000002,0,0,-0.75000002,-378.33724,994.96762)"/><polyline points="727.515,756.138 741.891,772.104 " id="polyline137" style="fill:#ffffff;stroke:#ab0000;stroke-width:8pt;stroke-dasharray:none;stroke-opacity:1" transform="matrix(0.75000002,0,0,-0.75000002,-378.33724,994.96762)"/><polyline points="696.058,781.612 708.686,798.993 " id="polyline142" style="fill:#ffffff;stroke:#ab0000;stroke-width:8pt;stroke-dasharray:none;stroke-opacity:1" transform="matrix(0.75000002,0,0,-0.75000002,-378.33724,994.96762)"/><polyline points="662.109,803.658 672.852,822.264 " id="polyline147" style="fill:#ffffff;stroke:#ab0000;stroke-width:8pt;stroke-dasharray:none;stroke-opacity:1" transform="matrix(0.75000002,0,0,-0.75000002,-378.33724,994.96762)"/><polyline points="626.043,822.035 634.781,841.662 " id="polyline152" style="fill:#ffffff;stroke:#ab0000;stroke-width:8pt;stroke-dasharray:none;stroke-opacity:1" transform="matrix(0.75000002,0,0,-0.75000002,-378.33724,994.96762)"/><polyline points="588.253,836.541 594.892,856.974 " id="polyline157" style="fill:#ffffff;stroke:#ab0000;stroke-width:8pt;stroke-dasharray:none;stroke-opacity:1" transform="matrix(0.75000002,0,0,-0.75000002,-378.33724,994.96762)"/><polyline points="549.153,847.018 553.620,868.033 " id="polyline162" style="fill:#ffffff;stroke:#ab0000;stroke-width:8pt;stroke-dasharray:none;stroke-opacity:1" transform="matrix(0.75000002,0,0,-0.75000002,-378.33724,994.96762)"/><polyline points="509.173,853.350 511.419,874.717 " id="polyline167" style="fill:#ffffff;stroke:#ab0000;stroke-width:8pt;stroke-dasharray:none;stroke-opacity:1" transform="matrix(0.75000002,0,0,-0.75000002,-378.33724,994.96762)"/><polyline points="468.750,855.469 468.750,876.953 " id="polyline172" style="fill:#ffffff;stroke:#ab0000;stroke-width:8pt;stroke-dasharray:none;stroke-opacity:1" transform="matrix(0.75000002,0,0,-0.75000002,-378.33724,994.96762)"/><polyline points="428.327,853.350 426.081,874.717 " id="polyline177" style="fill:#ffffff;stroke:#ab0000;stroke-width:8pt;stroke-dasharray:none;stroke-opacity:1" transform="matrix(0.75000002,0,0,-0.75000002,-378.33724,994.96762)"/><polyline points="388.347,847.018 383.880,868.033 " id="polyline182" style="fill:#ffffff;stroke:#ab0000;stroke-width:8pt;stroke-dasharray:none;stroke-opacity:1" transform="matrix(0.75000002,0,0,-0.75000002,-378.33724,994.96762)"/><polyline points="349.247,836.541 342.608,856.974 " id="polyline187" style="fill:#ffffff;stroke:#ab0000;stroke-width:8pt;stroke-dasharray:none;stroke-opacity:1" transform="matrix(0.75000002,0,0,-0.75000002,-378.33724,994.96762)"/><polyline points="311.457,822.035 302.719,841.662 " id="polyline192" style="fill:#ffffff;stroke:#ab0000;stroke-width:8pt;stroke-dasharray:none;stroke-opacity:1" transform="matrix(0.75000002,0,0,-0.75000002,-378.33724,994.96762)"/><polyline points="275.391,803.658 264.648,822.264 " id="polyline197" style="fill:#ffffff;stroke:#ab0000;stroke-width:8pt;stroke-dasharray:none;stroke-opacity:1" transform="matrix(0.75000002,0,0,-0.75000002,-378.33724,994.96762)"/><polyline points="241.442,781.612 228.814,798.993 " id="polyline202" style="fill:#ffffff;stroke:#ab0000;stroke-width:8pt;stroke-dasharray:none;stroke-opacity:1" transform="matrix(0.75000002,0,0,-0.75000002,-378.33724,994.96762)"/><polyline points="209.985,756.138 195.609,772.104 " id="polyline207" style="fill:#ffffff;stroke:#ab0000;stroke-width:8pt;stroke-dasharray:none;stroke-opacity:1" transform="matrix(0.75000002,0,0,-0.75000002,-378.33724,994.96762)"/><polyline points="181.362,727.515 165.396,741.891 " id="polyline212" style="fill:#ffffff;stroke:#ab0000;stroke-width:8pt;stroke-dasharray:none;stroke-opacity:1" transform="matrix(0.75000002,0,0,-0.75000002,-378.33724,994.96762)"/><polyline points="155.888,696.058 138.507,708.686 " id="polyline217" style="fill:#ffffff;stroke:#ab0000;stroke-width:8pt;stroke-dasharray:none;stroke-opacity:1" transform="matrix(0.75000002,0,0,-0.75000002,-378.33724,994.96762)"/><polyline points="133.842,662.109 115.236,672.852 " id="polyline222" style="fill:#ffffff;stroke:#ab0000;stroke-width:8pt;stroke-dasharray:none;stroke-opacity:1" transform="matrix(0.75000002,0,0,-0.75000002,-378.33724,994.96762)"/><polyline points="115.465,626.043 95.838,634.781 " id="polyline227" style="fill:#ffffff;stroke:#ab0000;stroke-width:8pt;stroke-dasharray:none;stroke-opacity:1" transform="matrix(0.75000002,0,0,-0.75000002,-378.33724,994.96762)"/><polyline points="100.959,588.253 80.526,594.892 " id="polyline232" style="fill:#ffffff;stroke:#ab0000;stroke-width:8pt;stroke-dasharray:none;stroke-opacity:1" transform="matrix(0.75000002,0,0,-0.75000002,-378.33724,994.96762)"/><polyline points="90.482,549.153 69.467,553.620 " id="polyline237" style="fill:#ffffff;stroke:#ab0000;stroke-width:8pt;stroke-dasharray:none;stroke-opacity:1" transform="matrix(0.75000002,0,0,-0.75000002,-378.33724,994.96762)"/><polyline points="84.150,509.173 62.783,511.419 " id="polyline242" style="fill:#ffffff;stroke:#ab0000;stroke-width:8pt;stroke-dasharray:none;stroke-opacity:1" transform="matrix(0.75000002,0,0,-0.75000002,-378.33724,994.96762)"/><polyline points="82.031,468.750 60.547,468.750 " id="polyline247" style="fill:#ffffff;stroke:#ab0000;stroke-width:8pt;stroke-dasharray:none;stroke-opacity:1" transform="matrix(0.75000002,0,0,-0.75000002,-378.33724,994.96762)"/><polyline points="84.150,428.327 62.783,426.081 " id="polyline252" style="fill:#ffffff;stroke:#ab0000;stroke-width:8pt;stroke-dasharray:none;stroke-opacity:1" transform="matrix(0.75000002,0,0,-0.75000002,-378.33724,994.96762)"/><polyline points="90.482,388.347 69.467,383.880 " id="polyline257" style="fill:#ffffff;stroke:#ab0000;stroke-width:8pt;stroke-dasharray:none;stroke-opacity:1" transform="matrix(0.75000002,0,0,-0.75000002,-378.33724,994.96762)"/><polyline points="100.959,349.247 80.526,342.608 " id="polyline262" style="fill:#ffffff;stroke:#ab0000;stroke-width:8pt;stroke-dasharray:none;stroke-opacity:1" transform="matrix(0.75000002,0,0,-0.75000002,-378.33724,994.96762)"/><polyline points="115.465,311.457 95.838,302.719 " id="polyline267" style="fill:#ffffff;stroke:#ab0000;stroke-width:8pt;stroke-dasharray:none;stroke-opacity:1" transform="matrix(0.75000002,0,0,-0.75000002,-378.33724,994.96762)"/><polyline points="133.842,275.391 115.236,264.648 " id="polyline272" style="fill:#ffffff;stroke:#ab0000;stroke-width:8pt;stroke-dasharray:none;stroke-opacity:1" transform="matrix(0.75000002,0,0,-0.75000002,-378.33724,994.96762)"/><polyline points="155.888,241.442 138.507,228.814 " id="polyline277" style="fill:#ffffff;stroke:#ab0000;stroke-width:8pt;stroke-dasharray:none;stroke-opacity:1" transform="matrix(0.75000002,0,0,-0.75000002,-378.33724,994.96762)"/><polyline points="181.362,209.985 165.396,195.609 " id="polyline282" style="fill:#ffffff;stroke:#ab0000;stroke-width:8pt;stroke-dasharray:none;stroke-opacity:1" transform="matrix(0.75000002,0,0,-0.75000002,-378.33724,994.96762)"/><polyline points="209.985,181.362 195.609,165.396 " id="polyline287" style="fill:#ffffff;stroke:#ab0000;stroke-width:8pt;stroke-dasharray:none;stroke-opacity:1" transform="matrix(0.75000002,0,0,-0.75000002,-378.33724,994.96762)"/><polyline points="241.442,155.888 228.814,138.507 " id="polyline292" style="fill:#ffffff;stroke:#ab0000;stroke-width:8pt;stroke-dasharray:none;stroke-opacity:1" transform="matrix(0.75000002,0,0,-0.75000002,-378.33724,994.96762)"/><polyline points="275.391,133.842 264.648,115.236 " id="polyline297" style="fill:#ffffff;stroke:#ab0000;stroke-width:8pt;stroke-dasharray:none;stroke-opacity:1" transform="matrix(0.75000002,0,0,-0.75000002,-378.33724,994.96762)"/><polyline points="311.457,115.465 302.719,95.838 " id="polyline302" style="fill:#ffffff;stroke:#ab0000;stroke-width:8pt;stroke-dasharray:none;stroke-opacity:1" transform="matrix(0.75000002,0,0,-0.75000002,-378.33724,994.96762)"/><polyline points="349.247,100.959 342.608,80.526 " id="polyline307" style="fill:#ffffff;stroke:#ab0000;stroke-width:8pt;stroke-dasharray:none;stroke-opacity:1" transform="matrix(0.75000002,0,0,-0.75000002,-378.33724,994.96762)"/><polyline points="388.347,90.482 383.880,69.467 " id="polyline312" style="fill:#ffffff;stroke:#ab0000;stroke-width:8pt;stroke-dasharray:none;stroke-opacity:1" transform="matrix(0.75000002,0,0,-0.75000002,-378.33724,994.96762)"/><polyline points="428.327,84.150 426.081,62.783 " id="polyline317" style="fill:#ffffff;stroke:#ab0000;stroke-width:8pt;stroke-dasharray:none;stroke-opacity:1" transform="matrix(0.75000002,0,0,-0.75000002,-378.33724,994.96762)"/><polyline points="468.750,82.031 468.750,60.547 " id="polyline322" style="fill:#ffffff;stroke:#ab0000;stroke-width:8pt;stroke-dasharray:none;stroke-opacity:1" transform="matrix(0.75000002,0,0,-0.75000002,-378.33724,994.96762)"/><polyline points="629.883,189.660 672.852,115.236 " id="polyline327" style="fill:#ffffff;stroke:#ab0000;stroke-width:12pt;stroke-dasharray:none;stroke-opacity:1" transform="matrix(0.75000002,0,0,-0.75000002,-378.33724,994.96762)"/><polyline points="747.840,307.617 822.264,264.648 " id="polyline332" style="fill:#ffffff;stroke:#ab0000;stroke-width:12pt;stroke-dasharray:none;stroke-opacity:1" transform="matrix(0.75000002,0,0,-0.75000002,-378.33724,994.96762)"/><polyline points="791.016,468.750 876.953,468.750 " id="polyline337" style="fill:#ffffff;stroke:#ab0000;stroke-width:12pt;stroke-dasharray:none;stroke-opacity:1" transform="matrix(0.75000002,0,0,-0.75000002,-378.33724,994.96762)"/><polyline points="747.840,629.883 822.264,672.852 " id="polyline342" style="fill:#ffffff;stroke:#ab0000;stroke-width:12pt;stroke-dasharray:none;stroke-opacity:1" transform="matrix(0.75000002,0,0,-0.75000002,-378.33724,994.96762)"/><polyline points="629.883,747.840 672.852,822.264 " id="polyline347" style="fill:#ffffff;stroke:#ab0000;stroke-width:12pt;stroke-dasharray:none;stroke-opacity:1" transform="matrix(0.75000002,0,0,-0.75000002,-378.33724,994.96762)"/><polyline points="468.750,791.016 468.750,876.953 " id="polyline352" style="fill:#ffffff;stroke:#ab0000;stroke-width:12pt;stroke-dasharray:none;stroke-opacity:1" transform="matrix(0.75000002,0,0,-0.75000002,-378.33724,994.96762)"/><polyline points="307.617,747.840 264.648,822.264 " id="polyline357" style="fill:#ffffff;stroke:#ab0000;stroke-width:12pt;stroke-dasharray:none;stroke-opacity:1" transform="matrix(0.75000002,0,0,-0.75000002,-378.33724,994.96762)"/><polyline points="189.660,629.883 115.236,672.852 " id="polyline362" style="fill:#ffffff;stroke:#ab0000;stroke-width:12pt;stroke-dasharray:none;stroke-opacity:1" transform="matrix(0.75000002,0,0,-0.75000002,-378.33724,994.96762)"/><polyline points="146.484,468.750 60.547,468.750 " id="polyline367" style="fill:#ffffff;stroke:#ab0000;stroke-width:12pt;stroke-dasharray:none;stroke-opacity:1" transform="matrix(0.75000002,0,0,-0.75000002,-378.33724,994.96762)"/><polyline points="189.660,307.617 115.236,264.648 " id="polyline372" style="fill:#ffffff;stroke:#ab0000;stroke-width:12pt;stroke-dasharray:none;stroke-opacity:1" transform="matrix(0.75000002,0,0,-0.75000002,-378.33724,994.96762)"/><polyline points="307.617,189.660 264.648,115.236 " id="polyline377" style="fill:#ffffff;stroke:#ab0000;stroke-width:12pt;stroke-dasharray:none;stroke-opacity:1" transform="matrix(0.75000002,0,0,-0.75000002,-378.33724,994.96762)"/><polyline points="468.750,146.484 468.750,60.547 " id="polyline382" style="fill:#ffffff;stroke:#ab0000;stroke-width:12pt;stroke-dasharray:none;stroke-opacity:1" transform="matrix(0.75000002,0,0,-0.75000002,-378.33724,994.96762)"/></g><path style="fill:#ffffff;stroke:#000000;stroke-width:0.730458px;stroke-linecap:butt;stroke-linejoin:miter;stroke-opacity:1" d="m -104.27078,378.68356 16.142973,-4.65662 -9.313269,-44.70357 -25.145794,-2.79398 z" id="path1683"/><path style="fill:#ffffff;stroke:none;stroke-width:0.730458px;stroke-linecap:butt;stroke-linejoin:miter;stroke-opacity:1" d="m -117.72399,420.47886 c 0,0 -0.17475,5.01343 3.13068,9.18136 3.46071,4.36373 31.72264,-1.45193 33.857659,-4.90081 0,0 1.533021,-1.13945 1.571797,-1.87674 0.03877,-0.73731 1.552228,-9.23564 1.552228,-9.23564 z" id="path1685" sodipodi:nodetypes="cscscc"/></g><g id="g392" transform="matrix(1.4322567,0,0,1.3635081,14.083999,-125.90688)" style="fill:url(#linearGradient1946);fill-opacity:1;fill-rule:nonzero"><path id="path1587" style="fill:url(#linearGradient2560);fill-opacity:1;fill-rule:nonzero;stroke:none;stroke-width:1.86328" d="m 289.14258,251.57422 c -15.69896,-0.0829 -19.77169,12.77029 -23.58985,24.42578 -1.78745,5.46312 -6.66642,10.6198 -7.37109,15.54297 -8.4274,-2.67975 -16.84417,-5.35305 -25.27539,-8.02735 2.24578,12.06978 14.38097,20.25527 25.80273,23.5586 0.1776,0.33815 0.34962,0.67316 0.52149,1.00586 -4.64624,7.51929 -7.02105,23.42679 5.27344,26.06836 14.42187,41.68335 -17.63277,64.76408 -40.55079,79.19726 -2.8034,0.83083 -5.60883,1.67126 -8.41796,2.50391 -6.58456,2.83973 -19.41914,11.52549 -22.64649,17.54492 -2.00134,5.05407 0.33401,17.80423 -0.52344,24.05274 h -0.51953 c -11.41222,-24.38316 -22.82011,-48.79094 -34.22851,-73.17774 -1.40552,-0.51086 -2.80919,-1.00563 -4.20899,-1.50195 -1.22792,-3.17788 -2.45971,-6.35532 -3.69336,-9.5332 -1.39979,-0.6654 -2.80146,-1.3328 -4.20507,-2 -8.60118,-17.20384 -17.2033,-34.41922 -25.79493,-51.62305 -5.79968,-11.70072 -11.58686,-23.40004 -17.3789,-35.08985 0.34947,-2.67429 0.7033,-5.3455 1.05468,-8.02343 -4.037049,-6.68301 -8.076266,-13.3636 -12.115229,-20.04297 -4.793286,0.14726 -7.192231,2.02082 -8.945313,5.00781 3.160513,7.01752 6.316093,14.03871 9.478516,21.05078 2.096823,1.00173 4.213723,2.00804 6.310547,3.00977 4.216559,9.35366 8.427879,18.71287 12.640629,28.06836 -3.60547,3.84691 -7.53256,7.00254 -9.47852,12.52929 -2.278243,0.50359 -4.557868,1.00746 -6.84375,1.50196 0.876541,2.17434 1.758138,4.34923 2.630859,6.52539 -1.600308,1.89255 -2.024775,2.51304 -5.259765,3.0039 -0.815432,2.16707 0.112857,2.5105 0.523437,6.01563 -1.930682,0.49632 -3.86233,1.00032 -5.794922,1.50391 0.17951,1.83073 0.351741,3.6737 0.53125,5.51171 -2.205675,2.33433 -5.304234,1.89375 -6.314453,5.50977 -4.613776,13.13331 33.215534,20.60796 33.160154,-5.00781 0.70849,-0.50359 1.41235,-1.00577 2.10938,-1.50391 7.60051,10.34448 6.22187,11.10559 7.90429,26.06055 1.88676,0.88537 4.62326,1.1183 7.89454,1.00195 4.13826,4.78682 7.74994,12.18461 8.94921,19.55664 -14.04375,3.83419 -28.08302,7.67962 -42.119136,11.51563 -3.399223,5.794 1.101712,12.34981 3.683596,17.05664 8.85707,1.44168 20.70691,-2.95082 28.42773,-5.52149 h 1.58399 c 0.97202,6.93753 4.48744,12.33814 7.36914,17.54492 -3.30565,2.55431 -9.17007,23.14369 -11.58008,28.57227 6.1377,7.68291 12.28218,15.36464 18.41797,23.05664 2.5475,9.29367 -11.75428,25.85986 -12.62891,37.08789 10.17857,8.52284 20.36041,17.0468 30.53516,25.56055 5.7634,7.22841 13.26057,19.35184 23.16797,22.0625 9.12634,2.48885 19.53817,-5.924 24.2207,-9.02735 h 0.52344 c 3.34766,14.01323 0.4574,33.0002 -2.10157,47.11524 -0.35329,7.69018 -0.70513,15.374 -1.05078,23.06055 -4.09243,19.87813 -7.61029,53.27365 -4.21679,77.1914 5.46521,38.49135 7.08175,86.52102 7.83007,131.98438 h 72.61133 c 0.0358,-0.55427 0.0739,-1.10787 0.10938,-1.66211 4.21465,-11.53164 8.42979,-23.06352 12.64062,-34.58789 4.18983,-17.00204 1.81679,-39.5611 1.57617,-58.14844 h 1.05469 c 4.42663,18.54916 5.47588,34.24927 9.48047,53.13477 1.40361,5.17587 2.80346,10.36305 4.20898,15.5371 0.74444,8.51217 0.46534,17.16427 1.17188,25.72657 h 92.44922 c -1.72486,-8.57611 -3.44984,-17.15308 -5.17383,-25.72657 -2.63535,-12.13522 3.65189,-29.37603 1.05664,-43.60742 -6.08041,-33.32413 -7.72493,-64.78906 -8.42578,-99.24218 4.96707,-0.40724 5.71696,1.73125 10.53125,2.5039 1.05223,-0.83265 2.09829,-1.66944 3.15625,-2.5039 1.74544,0.83446 3.50477,1.67125 5.25977,2.5039 10.59869,-5.65947 20.46452,-11.02664 20.02148,-28.57226 4.3808,-0.33452 8.76404,-0.66899 13.1582,-0.99805 1.05605,-1.50713 2.10025,-3.00823 3.15821,-4.51172 -8.77878,-26.97746 1.89861,-70.49835 -3.15821,-101.25 -5.4082,-32.80964 -12.45759,-64.87173 -21.0664,-94.73437 -2.98101,-10.19177 -5.97382,-20.37855 -8.94336,-30.57032 -1.20119,-5.63401 0.67875,-9.98431 -2.10938,-13.53125 -6.24273,-7.94289 -34.85683,-13.70964 -46.33398,-18.05469 -10.0067,-3.77782 -21.05312,-7.35737 -29.48242,-13.0332 -2.10256,-2.33796 -4.21577,-4.67948 -6.31641,-7.01562 -1.58503,0.33633 -3.15894,0.66744 -4.73633,1.00195 -1.86575,-2.86337 -2.58133,-25.14346 1.05469,-29.57031 1.01213,-1.23443 3.47176,-1.27161 4.20508,-3.00782 0.5328,-5.17769 1.05292,-10.35982 1.57617,-15.54296 8.99839,-2.27797 22.24357,-0.70749 31.06055,-1.50196 0.35902,-0.66721 0.71107,-1.33474 1.06054,-2.00195 -4.98234,-5.87581 -20.67449,-6.59422 -28.42968,-9.51758 -3.08031,-13.34783 -3.50134,-39.41241 -13.68946,-46.61719 -6.67431,-4.72864 -10.13174,1.22126 -17.89648,-0.50586 -3.6914,-1.66529 -7.3691,-3.33901 -11.0586,-5.00976 -2.75041,-0.58108 -5.22994,-0.8573 -7.47265,-0.86914 z m -14.11328,28.9375 c 25.24973,0.0309 43.14541,2.3473 59.49414,9.01758 1.04459,4.67956 2.10028,9.3595 3.16015,14.03906 -11.36257,-4.87045 -22.44778,-7.15625 -38.4375,-9.52148 -12.57712,-1.85801 -27.77132,1.54471 -37.3789,-2.00586 -0.1776,-0.66721 -0.35725,-1.33697 -0.52149,-2.00782 0.95866,-2.3725 2.0079,-3.33919 2.09766,-5.51172 3.1376,-2.30887 7.44194,-2.35901 11.58594,-4.00976 z m 15.79687,105.25976 c 2.27824,0.16726 4.5616,0.33443 6.83985,0.49805 -0.76006,5.5722 -5.14009,10.7286 -6.31836,14.04102 -1.56785,4.4014 2.58534,8.11844 3.16015,11.52539 -0.34756,9.19186 -0.69745,18.38377 -1.04883,27.56836 -3.68949,6.01943 -7.37682,12.0308 -11.0625,18.04297 -0.34374,0.16725 -0.69927,0.33833 -1.04492,0.50195 -1.93641,-4.34323 -3.87192,-8.68998 -5.79687,-13.0332 -2.78622,-10.9117 6.67507,-35.89529 9.47656,-43.60547 0.52325,-4.17961 1.05114,-8.35892 1.58203,-12.53125 1.39979,-1.00355 2.80928,-2.00791 4.21289,-3.00782 z m 101.07617,127.81836 c 11.16206,10.92625 0.68558,21.05181 3.69141,39.09375 1.15153,6.94117 4.95908,14.28406 3.67578,21.54883 -1.02931,5.91035 -2.57489,15.385 -1.57422,22.5625 0.72186,5.07952 6.40348,10.65189 4.73633,16.0332 -1.04459,3.39969 -4.98222,12.29073 -7.37695,16.04493 -0.16423,0.33451 -0.34389,0.66171 -0.52149,0.99804 -6.56928,-15.55308 -1.57422,-60.11588 -1.57422,-81.20117 -0.34565,-11.68617 -0.70526,-23.38663 -1.05664,-35.08008 z" transform="matrix(0.52364917,0,0,-0.55005175,-221.21033,550.2086)"/></g></g><g aria-label="GONCHAROV" transform="scale(1,-1)" id="text1790" style="font-style:normal;font-variant:normal;font-weight:normal;font-stretch:normal;font-size:78.6664px;line-height:1.25;font-family:Molot;-inkscape-font-specification:Molot;fill:#ffffff;fill-opacity:1;stroke:none;stroke-width:1.96667"><path d="m -279.3187,-107.77054 c -4.09065,0 -6.92264,2.83199 -6.92264,6.84398 v 41.378524 c 0,4.011986 2.83199,6.843976 6.92264,6.843976 h 34.37721 v -32.253222 h -17.22794 v 18.486603 h -6.84397 v -27.454573 h 21.00392 l 2.75333,-7.001308 v -6.84398 z" style="font-style:normal;font-variant:normal;font-weight:normal;font-stretch:normal;font-family:Molot;-inkscape-font-specification:Molot;fill:#ffffff;fill-opacity:1;stroke-width:1.96667" id="path2852"/><path d="m -214.57629,-93.925252 v 27.454573 h -6.84398 v -27.454573 z m 10.3053,41.221192 c 4.09065,0 6.92264,-2.83199 6.92264,-6.843976 v -41.378524 c 0,-4.01199 -2.83199,-6.84398 -6.92264,-6.84398 h -27.45458 c -4.09065,0 -6.92264,2.83199 -6.92264,6.84398 v 41.378524 c 0,4.011986 2.83199,6.843976 6.92264,6.843976 z" style="font-style:normal;font-variant:normal;font-weight:normal;font-stretch:normal;font-family:Molot;-inkscape-font-specification:Molot;fill:#ffffff;fill-opacity:1;stroke-width:1.96667" id="path2854"/><path d="m -164.7805,-82.282625 -8.02397,-25.487915 h -18.2506 v 55.06648 h 15.81194 v -6.843976 l -2.20266,-18.56527 h 1.33733 l 8.10264,25.409246 h 18.25061 v -55.06648 h -15.89062 v 6.84398 l 2.28133,18.643935 z" style="font-style:normal;font-variant:normal;font-weight:normal;font-stretch:normal;font-family:Molot;-inkscape-font-specification:Molot;fill:#ffffff;fill-opacity:1;stroke-width:1.96667" id="path2856"/><path d="m -136.5393,-107.77054 c -4.09065,0 -6.92264,2.83199 -6.92264,6.84398 v 41.378524 c 0,4.011986 2.83199,6.843976 6.92264,6.843976 h 29.89323 V -66.470679 H -126.234 v -27.454573 h 16.91328 l 2.67465,-7.001308 v -6.84398 z" style="font-style:normal;font-variant:normal;font-weight:normal;font-stretch:normal;font-family:Molot;-inkscape-font-specification:Molot;fill:#ffffff;fill-opacity:1;stroke-width:1.96667" id="path2858"/><path d="M -84.776823,-87.789273 V -107.77054 H -101.9261 v 55.06648 h 17.149277 v -21.318593 h 6.922642 v 21.318593 h 17.149275 v -55.06648 h -17.149275 v 19.981267 z" style="font-style:normal;font-variant:normal;font-weight:normal;font-stretch:normal;font-family:Molot;-inkscape-font-specification:Molot;fill:#ffffff;fill-opacity:1;stroke-width:1.96667" id="path2860"/><path d="m -36.475786,-77.562641 1.573328,-16.362611 h 1.887994 l 1.573328,16.362611 z m -11.799959,-30.207899 -7.709307,48.222504 v 6.843976 h 17.149274 l 1.10133,-11.091962 h 7.551974 l 1.022663,11.091962 h 17.227941 v -6.843976 l -7.709307,-48.222504 z" style="font-style:normal;font-variant:normal;font-weight:normal;font-stretch:normal;font-family:Molot;-inkscape-font-specification:Molot;fill:#ffffff;fill-opacity:1;stroke-width:1.96667" id="path2862"/><path d="m 16.8599,-93.925252 v 10.305298 H 10.015924 V -93.925252 Z M -7.2120172,-107.77054 v 55.06648 H 10.015924 v -17.149274 h 3.461321 l 4.641318,17.149274 h 16.834609 v -6.843976 l -5.427982,-13.53062 c 2.595991,-0.707998 4.562651,-3.618655 4.562651,-6.214646 v -21.633258 c 0,-4.01199 -2.83199,-6.84398 -6.843976,-6.84398 z" style="font-style:normal;font-variant:normal;font-weight:normal;font-stretch:normal;font-family:Molot;-inkscape-font-specification:Molot;fill:#ffffff;fill-opacity:1;stroke-width:1.96667" id="path2864"/><path d="m 63.744971,-93.925252 v 27.454573 h -6.843976 v -27.454573 z m 10.305298,41.221192 c 4.090653,0 6.922643,-2.83199 6.922643,-6.843976 v -41.378524 c 0,-4.01199 -2.83199,-6.84398 -6.922643,-6.84398 H 46.595697 c -4.090653,0 -6.922643,2.83199 -6.922643,6.84398 v 41.378524 c 0,4.011986 2.83199,6.843976 6.922643,6.843976 z" style="font-style:normal;font-variant:normal;font-weight:normal;font-stretch:normal;font-family:Molot;-inkscape-font-specification:Molot;fill:#ffffff;fill-opacity:1;stroke-width:1.96667" id="path2866"/><path d="m 93.638171,-52.70406 h 25.881249 l 8.73197,-50.58249 v -4.48399 h -17.14928 l -3.53999,41.299861 h -1.96666 l -3.53998,-41.299861 H 84.906201 v 4.48399 z" style="font-style:normal;font-variant:normal;font-weight:normal;font-stretch:normal;font-family:Molot;-inkscape-font-specification:Molot;fill:#ffffff;fill-opacity:1;stroke-width:1.96667" id="path2868"/></g><g aria-label="MARTIN SCORSESE PRESENTS" transform="scale(1,-1)" id="text1790-3" style="font-style:normal;font-variant:normal;font-weight:normal;font-stretch:normal;font-size:22.1836px;line-height:1.25;font-family:Molot;-inkscape-font-specification:Molot;fill:#ffffff;fill-opacity:1;stroke:none;stroke-width:0.554595"><path d="m -217.18752,-123.69775 h 4.05959 l 1.19792,-7.45369 h 0.3993 v 7.45369 h 4.72511 v -1.92997 l -1.57503,-13.59855 h -5.43499 l -1.17573,6.12268 h -0.33275 l -1.17573,-6.12268 h -5.4128 l -1.59722,13.59855 v 1.92997 h 4.74729 v -7.45369 h 0.37712 z" style="font-style:normal;font-variant:normal;font-weight:normal;font-stretch:normal;font-family:Molot;-inkscape-font-specification:Molot;fill:#ffffff;fill-opacity:1;stroke-width:0.554595" id="path2807"/><path d="m -200.41674,-130.70776 0.44367,-4.61419 h 0.53241 l 0.44367,4.61419 z m -3.32754,-8.51851 -2.17399,13.59855 v 1.92997 h 4.83602 l 0.31057,-3.12788 h 2.12963 l 0.28839,3.12788 h 4.8582 v -1.92997 l -2.17399,-13.59855 z" style="font-style:normal;font-variant:normal;font-weight:normal;font-stretch:normal;font-family:Molot;-inkscape-font-specification:Molot;fill:#ffffff;fill-opacity:1;stroke-width:0.554595" id="path2809"/><path d="m -185.37629,-135.32195 v 2.90605 h -1.92998 v -2.90605 z m -6.78818,-3.90432 v 15.52852 h 4.8582 v -4.83602 h 0.97608 l 1.30883,4.83602 h 4.74729 v -1.92997 l -1.53066,-3.81558 c 0.73205,-0.19965 1.28664,-1.02044 1.28664,-1.7525 v -6.10049 c 0,-1.13137 -0.7986,-1.92998 -1.92997,-1.92998 z" style="font-style:normal;font-variant:normal;font-weight:normal;font-stretch:normal;font-family:Molot;-inkscape-font-specification:Molot;fill:#ffffff;fill-opacity:1;stroke-width:0.554595" id="path2811"/><path d="m -176.70253,-135.32195 v 11.6242 h 4.8582 v -11.6242 h 2.32928 l 0.77643,-1.97434 v -1.92998 h -10.86997 v 3.90432 z" style="font-style:normal;font-variant:normal;font-weight:normal;font-stretch:normal;font-family:Molot;-inkscape-font-specification:Molot;fill:#ffffff;fill-opacity:1;stroke-width:0.554595" id="path2813"/><path d="m -162.79345,-123.69775 v -15.52852 h -4.83603 v 15.52852 z" style="font-style:normal;font-variant:normal;font-weight:normal;font-stretch:normal;font-family:Molot;-inkscape-font-specification:Molot;fill:#ffffff;fill-opacity:1;stroke-width:0.554595" id="path2815"/><path d="m -153.60948,-132.03878 -2.26272,-7.18749 h -5.1466 v 15.52852 h 4.4589 v -1.92997 l -0.62114,-5.23533 h 0.37712 l 2.28492,7.1653 h 5.14659 v -15.52852 h -4.48109 v 1.92998 l 0.64333,5.25751 z" style="font-style:normal;font-variant:normal;font-weight:normal;font-stretch:normal;font-family:Molot;-inkscape-font-specification:Molot;fill:#ffffff;fill-opacity:1;stroke-width:0.554595" id="path2817"/><path d="m -135.86262,-131.39546 4.21489,2.79514 v 1.02044 h -5.52372 v 3.88213 h 8.45195 c 1.13137,0 1.92998,-0.79861 1.92998,-1.92997 v -3.52719 c 0,-1.24228 -0.24402,-1.92997 -1.30884,-2.63985 l -4.21488,-2.81732 v -0.70987 h 4.76947 l 0.75425,-1.99653 v -1.90779 h -8.42977 c -1.15355,0 -1.95216,0.79861 -1.95216,1.92998 v 3.26099 c 0,1.24228 0.24402,1.90779 1.30883,2.63984 z" style="font-style:normal;font-variant:normal;font-weight:normal;font-stretch:normal;font-family:Molot;-inkscape-font-specification:Molot;fill:#ffffff;fill-opacity:1;stroke-width:0.554595" id="path2819"/><path d="m -123.50636,-139.22627 c -1.15355,0 -1.95216,0.79861 -1.95216,1.92998 v 11.66857 c 0,1.13136 0.79861,1.92997 1.95216,1.92997 h 8.42977 v -3.88213 h -5.52372 v -7.74207 h 4.76947 l 0.75425,-1.97434 v -1.92998 z" style="font-style:normal;font-variant:normal;font-weight:normal;font-stretch:normal;font-family:Molot;-inkscape-font-specification:Molot;fill:#ffffff;fill-opacity:1;stroke-width:0.554595" id="path2821"/><path d="m -106.9574,-135.32195 v 7.74207 h -1.92997 v -7.74207 z m 2.90605,11.6242 c 1.15355,0 1.95216,-0.79861 1.95216,-1.92997 v -11.66857 c 0,-1.13137 -0.79861,-1.92998 -1.95216,-1.92998 h -7.74208 c -1.15354,0 -1.95215,0.79861 -1.95215,1.92998 v 11.66857 c 0,1.13136 0.79861,1.92997 1.95215,1.92997 z" style="font-style:normal;font-variant:normal;font-weight:normal;font-stretch:normal;font-family:Molot;-inkscape-font-specification:Molot;fill:#ffffff;fill-opacity:1;stroke-width:0.554595" id="path2823"/><path d="m -93.536335,-135.32195 v 2.90605 h -1.929973 v -2.90605 z m -6.788185,-3.90432 v 15.52852 h 4.858212 v -4.83602 h 0.976078 l 1.308832,4.83602 h 4.747291 v -1.92997 l -1.530669,-3.81558 c 0.732059,-0.19965 1.286649,-1.02044 1.286649,-1.7525 v -6.10049 c 0,-1.13137 -0.79861,-1.92998 -1.929973,-1.92998 z" style="font-style:normal;font-variant:normal;font-weight:normal;font-stretch:normal;font-family:Molot;-inkscape-font-specification:Molot;fill:#ffffff;fill-opacity:1;stroke-width:0.554595" id="path2825"/><path d="m -86.237959,-131.39546 4.214884,2.79514 v 1.02044 h -5.523716 v 3.88213 h 8.451951 c 1.131364,0 1.929973,-0.79861 1.929973,-1.92997 v -3.52719 c 0,-1.24228 -0.244019,-1.92997 -1.308832,-2.63985 l -4.214884,-2.81732 v -0.70987 h 4.769474 l 0.754242,-1.99653 v -1.90779 h -8.429768 c -1.153547,0 -1.952156,0.79861 -1.952156,1.92998 v 3.26099 c 0,1.24228 0.244019,1.90779 1.308832,2.63984 z" style="font-style:normal;font-variant:normal;font-weight:normal;font-stretch:normal;font-family:Molot;-inkscape-font-specification:Molot;fill:#ffffff;fill-opacity:1;stroke-width:0.554595" id="path2827"/><path d="m -65.451938,-123.69775 v -3.88213 h -5.5459 v -2.12962 h 4.769474 v -3.88213 h -4.769474 v -1.73032 h 4.769474 l 0.776426,-1.97434 v -1.92998 h -10.381925 v 15.52852 z" style="font-style:normal;font-variant:normal;font-weight:normal;font-stretch:normal;font-family:Molot;-inkscape-font-specification:Molot;fill:#ffffff;fill-opacity:1;stroke-width:0.554595" id="path2829"/><path d="m -63.255766,-131.39546 4.214884,2.79514 v 1.02044 h -5.523716 v 3.88213 h 8.451951 c 1.131364,0 1.929973,-0.79861 1.929973,-1.92997 v -3.52719 c 0,-1.24228 -0.244019,-1.92997 -1.308832,-2.63985 l -4.214884,-2.81732 v -0.70987 h 4.769474 l 0.754242,-1.99653 v -1.90779 h -8.429768 c -1.153547,0 -1.952156,0.79861 -1.952156,1.92998 v 3.26099 c 0,1.24228 0.244019,1.90779 1.308832,2.63984 z" style="font-style:normal;font-variant:normal;font-weight:normal;font-stretch:normal;font-family:Molot;-inkscape-font-specification:Molot;fill:#ffffff;fill-opacity:1;stroke-width:0.554595" id="path2831"/><path d="m -42.469745,-123.69775 v -3.88213 h -5.5459 v -2.12962 h 4.769474 v -3.88213 h -4.769474 v -1.73032 h 4.769474 l 0.776426,-1.97434 v -1.92998 H -52.85167 v 15.52852 z" style="font-style:normal;font-variant:normal;font-weight:normal;font-stretch:normal;font-family:Molot;-inkscape-font-specification:Molot;fill:#ffffff;fill-opacity:1;stroke-width:0.554595" id="path2833"/><path d="m -25.41056,-135.32195 h 1.929973 v 2.90605 h -1.929973 z m 4.836024,6.78818 c 1.153547,0 1.952157,-0.82079 1.952157,-1.95216 v -6.81036 c 0,-1.13137 -0.79861,-1.92998 -1.952157,-1.92998 h -9.694233 v 15.52852 h 4.858209 v -4.83602 z" style="font-style:normal;font-variant:normal;font-weight:normal;font-stretch:normal;font-family:Molot;-inkscape-font-specification:Molot;fill:#ffffff;fill-opacity:1;stroke-width:0.554595" id="path2835"/><path d="m -10.281369,-135.32195 v 2.90605 h -1.929973 v -2.90605 z m -6.788181,-3.90432 v 15.52852 h 4.858208 v -4.83602 h 0.976079 l 1.3088321,4.83602 h 4.7472903 v -1.92997 l -1.5306684,-3.81558 c 0.7320588,-0.19965 1.2866488,-1.02044 1.2866488,-1.7525 v -6.10049 c 0,-1.13137 -0.7986096,-1.92998 -1.9299732,-1.92998 z" style="font-style:normal;font-variant:normal;font-weight:normal;font-stretch:normal;font-family:Molot;-inkscape-font-specification:Molot;fill:#ffffff;fill-opacity:1;stroke-width:0.554595" id="path2837"/><path d="m 6.5337796,-123.69775 v -3.88213 H 0.98787977 v -2.12962 H 5.7573537 v -3.88213 H 0.98787977 v -1.73032 H 5.7573537 l 0.7764259,-1.97434 v -1.92998 H -3.8481449 v 15.52852 z" style="font-style:normal;font-variant:normal;font-weight:normal;font-stretch:normal;font-family:Molot;-inkscape-font-specification:Molot;fill:#ffffff;fill-opacity:1;stroke-width:0.554595" id="path2839"/><path d="m 8.7299519,-131.39546 4.2148841,2.79514 v 1.02044 H 7.4211195 v 3.88213 h 8.4519515 c 1.131363,0 1.929973,-0.79861 1.929973,-1.92997 v -3.52719 c 0,-1.24228 -0.24402,-1.92997 -1.308832,-2.63985 l -4.214884,-2.81732 v -0.70987 h 4.769474 l 0.754242,-1.99653 v -1.90779 H 9.3732763 c -1.1535472,0 -1.9521568,0.79861 -1.9521568,1.92998 v 3.26099 c 0,1.24228 0.2440196,1.90779 1.3088324,2.63984 z" style="font-style:normal;font-variant:normal;font-weight:normal;font-stretch:normal;font-family:Molot;-inkscape-font-specification:Molot;fill:#ffffff;fill-opacity:1;stroke-width:0.554595" id="path2841"/><path d="m 29.515973,-123.69775 v -3.88213 h -5.5459 v -2.12962 h 4.769474 v -3.88213 h -4.769474 v -1.73032 h 4.769474 l 0.776426,-1.97434 v -1.92998 H 19.134048 v 15.52852 z" style="font-style:normal;font-variant:normal;font-weight:normal;font-stretch:normal;font-family:Molot;-inkscape-font-specification:Molot;fill:#ffffff;fill-opacity:1;stroke-width:0.554595" id="path2843"/><path d="m 38.256307,-132.03878 -2.262727,-7.18749 h -5.146596 v 15.52852 h 4.458904 v -1.92997 l -0.621141,-5.23533 h 0.377121 l 2.284911,7.1653 h 5.146595 v -15.52852 h -4.481087 v 1.92998 l 0.643324,5.25751 z" style="font-style:normal;font-variant:normal;font-weight:normal;font-stretch:normal;font-family:Molot;-inkscape-font-specification:Molot;fill:#ffffff;fill-opacity:1;stroke-width:0.554595" id="path2845"/><path d="m 46.508594,-135.32195 v 11.6242 h 4.858209 v -11.6242 h 2.329278 l 0.776426,-1.97434 v -1.92998 H 43.602543 v 3.90432 z" style="font-style:normal;font-variant:normal;font-weight:normal;font-stretch:normal;font-family:Molot;-inkscape-font-specification:Molot;fill:#ffffff;fill-opacity:1;stroke-width:0.554595" id="path2847"/><path d="m 56.44681,-131.39546 4.214884,2.79514 v 1.02044 h -5.523717 v 3.88213 h 8.451952 c 1.131363,0 1.929973,-0.79861 1.929973,-1.92997 v -3.52719 c 0,-1.24228 -0.24402,-1.92997 -1.308832,-2.63985 l -4.214884,-2.81732 v -0.70987 h 4.769474 l 0.754242,-1.99653 v -1.90779 h -8.429768 c -1.153547,0 -1.952157,0.79861 -1.952157,1.92998 v 3.26099 c 0,1.24228 0.24402,1.90779 1.308833,2.63984 z" style="font-style:normal;font-variant:normal;font-weight:normal;font-stretch:normal;font-family:Molot;-inkscape-font-specification:Molot;fill:#ffffff;fill-opacity:1;stroke-width:0.554595" id="path2849"/></g><g aria-label="A FILM BY MATTEO JWHJ0715" transform="scale(1,-1)" id="text1790-3-3" style="font-style:normal;font-variant:normal;font-weight:normal;font-stretch:normal;font-size:22.1836px;line-height:1.25;font-family:Molot;-inkscape-font-specification:Molot;fill:#ffffff;fill-opacity:1;stroke:none;stroke-width:0.554595"><path d="m -221.81275,-28.704262 0.44368,-4.614189 h 0.5324 l 0.44368,4.614189 z m -3.32754,-8.518502 -2.17399,13.598546 v 1.929974 h 4.83603 l 0.31057,-3.127888 h 2.12962 l 0.28839,3.127888 h 4.85821 v -1.929974 l -2.17399,-13.598546 z" style="font-style:normal;font-variant:normal;font-weight:normal;font-stretch:normal;font-family:Molot;-inkscape-font-specification:Molot;fill:#ffffff;fill-opacity:1;stroke-width:0.554595" id="path2871"/><path d="m -197.83231,-26.929574 h 4.76947 v -3.88213 h -4.76947 v -2.506747 h 4.76947 l 0.75424,-1.97434 v -1.929973 h -10.38192 v 15.52852 h 4.85821 z" style="font-style:normal;font-variant:normal;font-weight:normal;font-stretch:normal;font-family:Molot;-inkscape-font-specification:Molot;fill:#ffffff;fill-opacity:1;stroke-width:0.554595" id="path2873"/><path d="m -186.3634,-21.694244 v -15.52852 h -4.83603 v 15.52852 z" style="font-style:normal;font-variant:normal;font-weight:normal;font-stretch:normal;font-family:Molot;-inkscape-font-specification:Molot;fill:#ffffff;fill-opacity:1;stroke-width:0.554595" id="path2875"/><path d="m -184.58875,-21.694244 h 9.71642 v -3.88213 h -4.88039 v -11.64639 h -4.83603 z" style="font-style:normal;font-variant:normal;font-weight:normal;font-stretch:normal;font-family:Molot;-inkscape-font-specification:Molot;fill:#ffffff;fill-opacity:1;stroke-width:0.554595" id="path2877"/><path d="m -167.88452,-21.694244 h 4.0596 l 1.19791,-7.45369 h 0.39931 v 7.45369 h 4.72511 v -1.929974 l -1.57504,-13.598546 h -5.43498 l -1.17573,6.122673 h -0.33276 l -1.17573,-6.122673 h -5.4128 l -1.59721,13.598546 v 1.929974 h 4.74729 v -7.45369 h 0.37712 z" style="font-style:normal;font-variant:normal;font-weight:normal;font-stretch:normal;font-family:Molot;-inkscape-font-specification:Molot;fill:#ffffff;fill-opacity:1;stroke-width:0.554595" id="path2879"/><path d="m -140.44343,-27.706 h 1.92998 v 2.129626 h -1.92998 z m 1.92998,-3.88213 h -1.92998 v -1.730321 h 1.92998 z m 2.90605,9.893886 c 1.15354,0 1.95215,-0.79861 1.95215,-1.929974 v -3.926497 c 0,-1.153547 -0.93171,-1.885606 -1.99652,-1.885606 v -0.421488 c 1.06481,0 1.99652,-0.732059 1.99652,-1.863422 v -3.57156 c 0,-1.131363 -0.79861,-1.929973 -1.95215,-1.929973 h -9.69424 v 15.52852 z" style="font-style:normal;font-variant:normal;font-weight:normal;font-stretch:normal;font-family:Molot;-inkscape-font-specification:Molot;fill:#ffffff;fill-opacity:1;stroke-width:0.554595" id="path2881"/><path d="m -128.97452,-25.931312 v 4.237068 h 4.83602 v -4.237068 l 3.7934,-9.361479 v -1.929973 h -4.83603 l -1.19791,6.033939 h -0.35494 l -1.17573,-6.033939 h -4.85821 v 1.929973 z" style="font-style:normal;font-variant:normal;font-weight:normal;font-stretch:normal;font-family:Molot;-inkscape-font-specification:Molot;fill:#ffffff;fill-opacity:1;stroke-width:0.554595" id="path2883"/><path d="m -102.48731,-21.694244 h 4.059595 l 1.197915,-7.45369 h 0.399305 v 7.45369 h 4.725106 v -1.929974 l -1.575035,-13.598546 h -5.434982 l -1.175734,6.122673 h -0.33275 l -1.17573,-6.122673 h -5.4128 l -1.59722,13.598546 v 1.929974 h 4.74729 v -7.45369 h 0.37712 z" style="font-style:normal;font-variant:normal;font-weight:normal;font-stretch:normal;font-family:Molot;-inkscape-font-specification:Molot;fill:#ffffff;fill-opacity:1;stroke-width:0.554595" id="path2885"/><path d="m -85.716523,-28.704262 0.443672,-4.614189 h 0.532406 l 0.443672,4.614189 z m -3.32754,-8.518502 -2.173993,13.598546 v 1.929974 h 4.836025 l 0.31057,-3.127888 h 2.129626 l 0.288387,3.127888 h 4.858208 v -1.929974 l -2.173993,-13.598546 z" style="font-style:normal;font-variant:normal;font-weight:normal;font-stretch:normal;font-family:Molot;-inkscape-font-specification:Molot;fill:#ffffff;fill-opacity:1;stroke-width:0.554595" id="path2887"/><path d="m -76.11108,-33.318451 v 11.624207 h 4.858208 v -11.624207 h 2.329278 l 0.776426,-1.97434 v -1.929973 h -10.869964 v 3.904313 z" style="font-style:normal;font-variant:normal;font-weight:normal;font-stretch:normal;font-family:Molot;-inkscape-font-specification:Molot;fill:#ffffff;fill-opacity:1;stroke-width:0.554595" id="path2889"/><path d="m -64.797482,-33.318451 v 11.624207 h 4.858209 v -11.624207 h 2.329277 l 0.776426,-1.97434 v -1.929973 h -10.869963 v 3.904313 z" style="font-style:normal;font-variant:normal;font-weight:normal;font-stretch:normal;font-family:Molot;-inkscape-font-specification:Molot;fill:#ffffff;fill-opacity:1;stroke-width:0.554595" id="path2891"/><path d="m -45.342502,-21.694244 v -3.88213 h -5.5459 V -27.706 h 4.769474 v -3.88213 h -4.769474 v -1.730321 h 4.769474 l 0.776426,-1.97434 v -1.929973 h -10.381925 v 15.52852 z" style="font-style:normal;font-variant:normal;font-weight:normal;font-stretch:normal;font-family:Molot;-inkscape-font-specification:Molot;fill:#ffffff;fill-opacity:1;stroke-width:0.554595" id="path2893"/><path d="m -37.223309,-33.318451 v 7.742077 h -1.929973 v -7.742077 z m 2.906052,11.624207 c 1.153547,0 1.952156,-0.79861 1.952156,-1.929974 v -11.668573 c 0,-1.131363 -0.798609,-1.929973 -1.952156,-1.929973 h -7.742076 c -1.153548,0 -1.952157,0.79861 -1.952157,1.929973 v 11.668573 c 0,1.131364 0.798609,1.929974 1.952157,1.929974 z" style="font-style:normal;font-variant:normal;font-weight:normal;font-stretch:normal;font-family:Molot;-inkscape-font-specification:Molot;fill:#ffffff;fill-opacity:1;stroke-width:0.554595" id="path2895"/><path d="m -14.662599,-21.694244 c 1.131364,0 1.929973,-0.79861 1.929973,-1.929974 v -13.598546 h -4.836024 v 11.64639 h -2.817317 v 3.88213 z" style="font-style:normal;font-variant:normal;font-weight:normal;font-stretch:normal;font-family:Molot;-inkscape-font-specification:Molot;fill:#ffffff;fill-opacity:1;stroke-width:0.554595" id="path2897"/><path d="m -5.0793238,-37.222764 -1.1979144,7.475873 h -0.3771212 v -7.475873 H -11.40165 v 1.929973 l 1.5972195,13.598547 h 5.4127983 l 1.1757307,-6.10049 h 0.332754 l 1.1757308,6.10049 h 5.4349819 l 1.5750355,-13.598547 v -1.929973 H 0.57749405 v 7.475873 H 0.17818926 l -1.19791436,-7.475873 z" style="font-style:normal;font-variant:normal;font-weight:normal;font-stretch:normal;font-family:Molot;-inkscape-font-specification:Molot;fill:#ffffff;fill-opacity:1;stroke-width:0.554595" id="path2899"/><path d="m 11.46963,-31.58813 v -5.634634 H 6.6336056 v 15.52852 H 11.46963 V -27.706 h 1.952157 v 6.011756 h 4.836025 v -15.52852 h -4.836025 v 5.634634 z" style="font-style:normal;font-variant:normal;font-weight:normal;font-stretch:normal;font-family:Molot;-inkscape-font-specification:Molot;fill:#ffffff;fill-opacity:1;stroke-width:0.554595" id="path2901"/><path d="m 25.090316,-21.694244 c 1.131363,0 1.929973,-0.79861 1.929973,-1.929974 v -13.598546 h -4.836025 v 11.64639 h -2.817317 v 3.88213 z" style="font-style:normal;font-variant:normal;font-weight:normal;font-stretch:normal;font-family:Molot;-inkscape-font-specification:Molot;fill:#ffffff;fill-opacity:1;stroke-width:0.554595" id="path2903"/><path d="m 34.895442,-33.318451 v 7.76426 h -1.264465 v -7.76426 z m 2.906051,11.624207 c 1.153548,0 1.952157,-0.79861 1.952157,-1.929974 v -11.668573 c 0,-1.131363 -0.820793,-1.929973 -1.952157,-1.929973 h -7.076568 c -1.131363,0 -1.929973,0.79861 -1.929973,1.929973 v 11.668573 c 0,1.131364 0.79861,1.929974 1.929973,1.929974 z" style="font-style:normal;font-variant:normal;font-weight:normal;font-stretch:normal;font-family:Molot;-inkscape-font-specification:Molot;fill:#ffffff;fill-opacity:1;stroke-width:0.554595" id="path2905"/><path d="m 45.432633,-32.786044 -3.283172,9.849518 v 1.242282 h 4.50327 l 3.749029,-11.535472 v -3.993048 h -9.538948 v 3.904313 h 4.569821 z" style="font-style:normal;font-variant:normal;font-weight:normal;font-stretch:normal;font-family:Molot;-inkscape-font-specification:Molot;fill:#ffffff;fill-opacity:1;stroke-width:0.554595" id="path2907"/><path d="m 56.590965,-21.694244 v -15.52852 h -2.418012 l -2.440196,0.953895 v 14.574625 z" style="font-style:normal;font-variant:normal;font-weight:normal;font-stretch:normal;font-family:Molot;-inkscape-font-specification:Molot;fill:#ffffff;fill-opacity:1;stroke-width:0.554595" id="path2909"/><path d="M 58.365631,-37.222764 V -27.706 h 6.122673 v 2.151809 h -6.122673 v 3.859947 h 9.028725 c 1.131363,0 1.929973,-0.79861 1.929973,-1.929974 v -6.011755 c 0,-1.131364 -0.79861,-1.929973 -1.929973,-1.929973 h -4.170517 v -1.752505 h 5.257513 l 0.754242,-1.97434 v -1.929973 z" style="font-style:normal;font-variant:normal;font-weight:normal;font-stretch:normal;font-family:Molot;-inkscape-font-specification:Molot;fill:#ffffff;fill-opacity:1;stroke-width:0.554595" id="path2911"/></g><g aria-label="WINTER IS COMING TO NAPLES." transform="scale(1,-1)" id="text1790-3-2" style="font-style:normal;font-variant:normal;font-weight:normal;font-stretch:normal;font-size:19.1534px;line-height:1.25;font-family:Molot;-inkscape-font-specification:Molot;fill:#ffffff;fill-opacity:1;stroke:none;stroke-width:0.47884"><path d="m -209.39114,-592.47751 -1.03428,6.4547 h -0.32561 v -6.4547 h -4.09883 v 1.66635 l 1.37905,11.74103 h 4.67343 l 1.01513,-5.26718 h 0.2873 l 1.01513,5.26718 h 4.69258 l 1.35989,-11.74103 v -1.66635 h -4.07967 v 6.4547 h -0.34476 l -1.03429,-6.4547 z" style="font-style:normal;font-variant:normal;font-weight:normal;font-stretch:normal;font-family:Molot;-inkscape-font-specification:Molot;fill:#ffffff;fill-opacity:1;stroke-width:0.47884" id="path2760"/><path d="m -195.10272,-579.07013 v -13.40738 h -4.17544 v 13.40738 z" style="font-style:normal;font-variant:normal;font-weight:normal;font-stretch:normal;font-family:Molot;-inkscape-font-specification:Molot;fill:#ffffff;fill-opacity:1;stroke-width:0.47884" id="path2762"/><path d="m -187.17324,-586.27181 -1.95364,-6.2057 h -4.44359 v 13.40738 h 3.84983 v -1.66635 l -0.53629,-4.5202 h 0.3256 l 1.9728,6.18655 h 4.44359 v -13.40738 h -3.86898 v 1.66635 l 0.55544,4.53935 z" style="font-style:normal;font-variant:normal;font-weight:normal;font-stretch:normal;font-family:Molot;-inkscape-font-specification:Molot;fill:#ffffff;fill-opacity:1;stroke-width:0.47884" id="path2764"/><path d="m -180.04818,-589.10651 v 10.03638 h 4.19459 v -10.03638 h 2.01111 l 0.67037,-1.70465 v -1.66635 h -9.38517 v 3.371 z" style="font-style:normal;font-variant:normal;font-weight:normal;font-stretch:normal;font-family:Molot;-inkscape-font-specification:Molot;fill:#ffffff;fill-opacity:1;stroke-width:0.47884" id="path2766"/><path d="m -163.25068,-579.07013 v -3.35184 h -4.78835 v -1.83873 h 4.11798 v -3.35185 h -4.11798 v -1.49396 h 4.11798 l 0.67037,-1.70465 v -1.66635 h -8.96379 v 13.40738 z" style="font-style:normal;font-variant:normal;font-weight:normal;font-stretch:normal;font-family:Molot;-inkscape-font-specification:Molot;fill:#ffffff;fill-opacity:1;stroke-width:0.47884" id="path2768"/><path d="m -156.24054,-589.10651 v 2.50909 h -1.66634 v -2.50909 z m -5.86094,-3.371 v 13.40738 h 4.1946 v -4.17544 h 0.84275 l 1.13005,4.17544 h 4.09882 v -1.66635 l -1.32158,-3.29438 c 0.63206,-0.17238 1.1109,-0.88106 1.1109,-1.51312 v -5.26718 c 0,-0.97683 -0.68953,-1.66635 -1.66635,-1.66635 z" style="font-style:normal;font-variant:normal;font-weight:normal;font-stretch:normal;font-family:Molot;-inkscape-font-specification:Molot;fill:#ffffff;fill-opacity:1;stroke-width:0.47884" id="path2770"/><path d="m -137.12548,-579.07013 v -13.40738 h -4.17544 v 13.40738 z" style="font-style:normal;font-variant:normal;font-weight:normal;font-stretch:normal;font-family:Molot;-inkscape-font-specification:Molot;fill:#ffffff;fill-opacity:1;stroke-width:0.47884" id="path2772"/><path d="m -134.84625,-585.71636 3.63915,2.41333 v 0.88106 h -4.7692 v 3.35184 h 7.29745 c 0.97682,0 1.66634,-0.68952 1.66634,-1.66635 v -3.04539 c 0,-1.07259 -0.21069,-1.66634 -1.13005,-2.27925 l -3.63914,-2.43248 v -0.61291 h 4.11798 l 0.65121,-1.72381 v -1.64719 h -7.27829 c -0.99598,0 -1.6855,0.68952 -1.6855,1.66635 v 2.81555 c 0,1.07259 0.21069,1.64719 1.13005,2.27925 z" style="font-style:normal;font-variant:normal;font-weight:normal;font-stretch:normal;font-family:Molot;-inkscape-font-specification:Molot;fill:#ffffff;fill-opacity:1;stroke-width:0.47884" id="path2774"/><path d="m -114.79266,-592.47751 c -0.99597,0 -1.6855,0.68952 -1.6855,1.66635 v 10.07468 c 0,0.97683 0.68953,1.66635 1.6855,1.66635 h 7.27829 v -3.35184 h -4.76919 v -6.68454 h 4.11798 l 0.65121,-1.70465 v -1.66635 z" style="font-style:normal;font-variant:normal;font-weight:normal;font-stretch:normal;font-family:Molot;-inkscape-font-specification:Molot;fill:#ffffff;fill-opacity:1;stroke-width:0.47884" id="path2776"/><path d="m -100.50422,-589.10651 v 6.68454 h -1.66634 v -6.68454 z m 2.509098,10.03638 c 0.995977,0 1.685499,-0.68952 1.685499,-1.66635 v -10.07468 c 0,-0.97683 -0.689522,-1.66635 -1.685499,-1.66635 h -6.684538 c -0.99598,0 -1.6855,0.68952 -1.6855,1.66635 v 10.07468 c 0,0.97683 0.68952,1.66635 1.6855,1.66635 z" style="font-style:normal;font-variant:normal;font-weight:normal;font-stretch:normal;font-family:Molot;-inkscape-font-specification:Molot;fill:#ffffff;fill-opacity:1;stroke-width:0.47884" id="path2778"/><path d="m -89.701716,-579.07013 h 3.505073 l 1.034283,-6.43554 h 0.344761 v 6.43554 h 4.079675 v -1.66635 l -1.359892,-11.74103 h -4.692583 l -1.01513,5.28634 h -0.287301 l -1.01513,-5.28634 h -4.67343 l -1.379045,11.74103 v 1.66635 h 4.098828 v -6.43554 h 0.325608 z" style="font-style:normal;font-variant:normal;font-weight:normal;font-stretch:normal;font-family:Molot;-inkscape-font-specification:Molot;fill:#ffffff;fill-opacity:1;stroke-width:0.47884" id="path2780"/><path d="m -75.413296,-579.07013 v -13.40738 h -4.175442 v 13.40738 z" style="font-style:normal;font-variant:normal;font-weight:normal;font-stretch:normal;font-family:Molot;-inkscape-font-specification:Molot;fill:#ffffff;fill-opacity:1;stroke-width:0.47884" id="path2782"/><path d="m -67.483815,-586.27181 -1.953646,-6.2057 h -4.443589 v 13.40738 h 3.849833 v -1.66635 l -0.536295,-4.5202 h 0.325608 l 1.9728,6.18655 h 4.443589 v -13.40738 h -3.868987 v 1.66635 l 0.555449,4.53935 z" style="font-style:normal;font-variant:normal;font-weight:normal;font-stretch:normal;font-family:Molot;-inkscape-font-specification:Molot;fill:#ffffff;fill-opacity:1;stroke-width:0.47884" id="path2784"/><path d="m -60.607752,-592.47751 c -0.995977,0 -1.685499,0.68952 -1.685499,1.66635 v 10.07468 c 0,0.97683 0.689522,1.66635 1.685499,1.66635 h 8.370036 v -7.85289 h -4.194595 v 4.50105 h -1.666345 v -6.68454 h 5.113957 l 0.670369,-1.70465 v -1.66635 z" style="font-style:normal;font-variant:normal;font-weight:normal;font-stretch:normal;font-family:Molot;-inkscape-font-specification:Molot;fill:#ffffff;fill-opacity:1;stroke-width:0.47884" id="path2786"/><path d="m -39.385796,-589.10651 v 10.03638 h 4.194594 v -10.03638 h 2.011107 l 0.670369,-1.70465 v -1.66635 h -9.385166 v 3.371 z" style="font-style:normal;font-variant:normal;font-weight:normal;font-stretch:normal;font-family:Molot;-inkscape-font-specification:Molot;fill:#ffffff;fill-opacity:1;stroke-width:0.47884" id="path2788"/><path d="m -25.691146,-589.10651 v 6.68454 h -1.666345 v -6.68454 z m 2.509096,10.03638 c 0.995977,0 1.685499,-0.68952 1.685499,-1.66635 v -10.07468 c 0,-0.97683 -0.689522,-1.66635 -1.685499,-1.66635 h -6.684537 c -0.995977,0 -1.685499,0.68952 -1.685499,1.66635 v 10.07468 c 0,0.97683 0.689522,1.66635 1.685499,1.66635 z" style="font-style:normal;font-variant:normal;font-weight:normal;font-stretch:normal;font-family:Molot;-inkscape-font-specification:Molot;fill:#ffffff;fill-opacity:1;stroke-width:0.47884" id="path2790"/><path d="m -4.1818889,-586.27181 -1.9536468,-6.2057 h -4.4435893 v 13.40738 h 3.8498339 v -1.66635 l -0.5362952,-4.5202 h 0.3256078 l 1.9728002,6.18655 h 4.44358892 v -13.40738 H -4.3925763 v 1.66635 l 0.5554486,4.53935 z" style="font-style:normal;font-variant:normal;font-weight:normal;font-stretch:normal;font-family:Molot;-inkscape-font-specification:Molot;fill:#ffffff;fill-opacity:1;stroke-width:0.47884" id="path2792"/><path d="m 5.3756498,-585.1226 0.383068,-3.98391 h 0.4596816 l 0.383068,3.98391 z m -2.8730101,-7.35491 -1.87703324,11.74103 v 1.66635 H 4.8010478 l 0.2681476,-2.70063 h 1.8387264 l 0.2489942,2.70063 h 4.194595 v -1.66635 l -1.8770335,-11.74103 z" style="font-style:normal;font-variant:normal;font-weight:normal;font-stretch:normal;font-family:Molot;-inkscape-font-specification:Molot;fill:#ffffff;fill-opacity:1;stroke-width:0.47884" id="path2794"/><path d="m 16.695274,-589.10651 h 1.666345 v 2.50909 h -1.666345 z m 4.175441,5.86094 c 0.995977,0 1.685499,-0.70868 1.685499,-1.6855 v -5.88009 c 0,-0.97683 -0.689522,-1.66635 -1.685499,-1.66635 h -8.370036 v 13.40738 h 4.194595 v -4.17544 z" style="font-style:normal;font-variant:normal;font-weight:normal;font-stretch:normal;font-family:Molot;-inkscape-font-specification:Molot;fill:#ffffff;fill-opacity:1;stroke-width:0.47884" id="path2796"/><path d="m 23.896934,-579.07013 h 8.38919 v -3.35184 h -4.213748 v -10.05554 h -4.175442 z" style="font-style:normal;font-variant:normal;font-weight:normal;font-stretch:normal;font-family:Molot;-inkscape-font-specification:Molot;fill:#ffffff;fill-opacity:1;stroke-width:0.47884" id="path2798"/><path d="m 42.207573,-579.07013 v -3.35184 h -4.78835 v -1.83873 h 4.117981 v -3.35185 h -4.117981 v -1.49396 h 4.117981 l 0.670369,-1.70465 v -1.66635 h -8.963791 v 13.40738 z" style="font-style:normal;font-variant:normal;font-weight:normal;font-stretch:normal;font-family:Molot;-inkscape-font-specification:Molot;fill:#ffffff;fill-opacity:1;stroke-width:0.47884" id="path2800"/><path d="m 44.103771,-585.71636 3.639146,2.41333 v 0.88106 H 42.97372 v 3.35184 h 7.297446 c 0.976823,0 1.666346,-0.68952 1.666346,-1.66635 v -3.04539 c 0,-1.07259 -0.210688,-1.66634 -1.130051,-2.27925 l -3.639146,-2.43248 v -0.61291 h 4.117981 l 0.651216,-1.72381 v -1.64719 H 44.65922 c -0.995977,0 -1.6855,0.68952 -1.6855,1.66635 v 2.81555 c 0,1.07259 0.210688,1.64719 1.130051,2.27925 z" style="font-style:normal;font-variant:normal;font-weight:normal;font-stretch:normal;font-family:Molot;-inkscape-font-specification:Molot;fill:#ffffff;fill-opacity:1;stroke-width:0.47884" id="path2802"/><path d="m 53.086677,-582.42197 v 3.35184 h 3.77322 v -3.35184 z" style="font-style:normal;font-variant:normal;font-weight:normal;font-stretch:normal;font-family:Molot;-inkscape-font-specification:Molot;fill:#ffffff;fill-opacity:1;stroke-width:0.47884" id="path2804"/></g></g></g></svg>